<?xml version="1.0" standalone="no"?>
<!DOCTYPE svg PUBLIC "-//W3C//DTD SVG 20010904//EN"
 "http://www.w3.org/TR/2001/REC-SVG-20010904/DTD/svg10.dtd">
<svg version="1.0" xmlns="http://www.w3.org/2000/svg"
 width="1544.000000pt" height="1544.000000pt" viewBox="0 0 1544.000000 1544.000000"
 preserveAspectRatio="xMidYMid meet">
<metadata>
Created by potrace 1.14, written by Peter Selinger 2001-2017
</metadata>
<g transform="translate(0.000000,1544.000000) scale(0.100000,-0.100000)"
fill="#000000" stroke="none">
<path d="M2585 10225 c-354 -45 -645 -141 -945 -312 -52 -30 -246 -161 -281
-191 -122 -102 -178 -154 -232 -210 -34 -36 -71 -74 -82 -86 -11 -12 -38 -43
-60 -71 -22 -27 -43 -52 -46 -55 -31 -25 -249 -376 -249 -401 0 -5 -5 -9 -10
-9 -6 0 -9 -3 -8 -7 1 -5 -7 -28 -19 -53 -51 -110 -133 -337 -147 -410 -3 -14
-10 -45 -17 -70 -13 -55 -17 -75 -23 -120 -2 -19 -7 -46 -10 -60 -27 -123 -29
-545 -3 -712 5 -28 10 -29 63 -9 51 20 94 28 178 37 55 6 69 11 61 24 -27 44
-27 488 1 635 2 11 6 31 9 45 2 14 7 36 9 50 7 42 24 108 50 194 34 116 145
375 147 346 1 -8 3 -33 4 -55 13 -173 87 -415 157 -517 11 -16 17 -28 14 -28
-11 0 88 -135 129 -176 120 -120 212 -167 537 -269 217 -68 275 -118 285 -241
8 -95 -26 -147 -158 -236 -26 -18 -49 -36 -49 -40 0 -6 45 -22 95 -34 6 -1 30
-7 55 -14 70 -18 86 -16 235 40 160 59 345 115 480 147 11 2 27 6 35 8 8 2 17
4 20 4 8 2 -39 24 -115 55 -195 81 -235 101 -284 143 -71 60 -121 190 -136
360 -24 256 -62 290 -255 232 -122 -37 -168 -33 -222 19 -48 48 -67 99 -64
173 3 106 72 203 184 261 40 21 61 25 118 23 152 -4 255 -59 421 -223 132
-130 166 -149 221 -127 55 24 96 59 134 117 65 99 105 248 78 297 -6 12 -34
33 -63 46 -56 25 -73 46 -82 95 -12 67 55 141 243 268 126 86 191 144 193 171
0 9 2 23 4 33 4 23 -27 71 -68 102 -19 14 -99 58 -178 97 -200 97 -204 100
-257 139 -141 107 -114 218 63 256 60 12 74 15 115 20 88 11 219 7 311 -11 13
-3 41 -7 64 -10 114 -16 392 -101 436 -133 83 -63 177 -178 232 -287 56 -112
109 -322 100 -400 -2 -16 -4 -39 -4 -49 0 -11 -15 -52 -33 -92 -26 -56 -52
-90 -116 -153 -45 -45 -88 -81 -96 -81 -8 0 -14 -4 -14 -10 0 -5 -5 -10 -10
-10 -6 0 -28 -11 -50 -25 -22 -14 -70 -36 -107 -51 -166 -63 -216 -97 -274
-188 -44 -67 -58 -107 -66 -188 -12 -122 32 -202 134 -242 263 -103 326 -163
324 -308 -1 -93 11 -135 54 -186 37 -42 132 -96 190 -106 17 -3 41 -8 55 -11
14 -3 50 -6 80 -6 90 -1 161 -43 215 -129 51 -81 37 -128 -57 -189 -135 -87
-166 -130 -164 -229 2 -63 18 -79 101 -106 67 -21 105 -55 105 -95 0 -17 -9
-57 -20 -90 -28 -79 -32 -99 -30 -144 1 -51 13 -78 49 -120 l31 -35 -38 -28
c-20 -15 -41 -33 -47 -39 -45 -49 -251 -186 -381 -252 -159 -82 -399 -170
-514 -189 -84 -14 -115 -27 -105 -44 9 -15 19 -117 18 -197 l-1 -83 27 5 c14
2 42 7 61 10 106 18 365 96 465 140 395 173 699 399 949 706 42 52 81 99 86
106 8 10 104 159 147 228 29 46 124 247 156 330 34 86 83 240 92 286 2 11 6
28 9 37 9 30 34 166 41 227 3 22 8 63 12 90 8 62 11 425 3 425 -3 0 -5 17 -6
38 -1 48 -15 165 -20 173 -2 4 -6 24 -9 45 -5 39 -12 75 -15 84 -1 3 -3 10 -4
15 -8 41 -54 203 -66 230 -5 11 -14 38 -21 60 -22 71 -107 255 -164 354 -76
133 -89 155 -95 161 -3 3 -30 39 -60 80 -29 41 -59 80 -64 86 -6 6 -22 26 -36
44 -38 50 -217 230 -285 286 -33 27 -62 51 -65 54 -17 19 -130 100 -139 100
-6 0 -11 4 -11 9 0 5 -15 16 -32 25 -18 9 -62 35 -98 58 -62 39 -173 97 -252
132 -21 9 -53 22 -70 30 -72 31 -254 90 -308 100 -8 2 -33 8 -55 14 -42 11
-87 20 -145 28 -19 3 -46 7 -60 10 -100 21 -480 26 -615 9z"/>
<path d="M9559 9109 c-27 -27 -68 -41 -234 -79 -76 -17 -155 -40 -175 -50
-122 -62 -170 -191 -174 -465 -3 -203 51 -313 184 -377 66 -32 199 -35 286 -6
124 40 183 128 189 280 7 166 -41 262 -160 318 -64 31 -199 34 -256 7 -49 -24
-95 -71 -125 -126 l-24 -46 5 49 c8 67 39 137 78 174 37 35 103 71 143 78 16
3 37 7 46 10 10 3 28 7 40 10 153 28 212 52 222 88 3 12 6 51 6 89 0 74 -12
85 -51 46z m-154 -486 c64 -135 49 -340 -31 -421 -26 -26 -88 -32 -120 -12
-58 36 -86 132 -80 270 6 135 42 210 112 229 42 12 97 -18 119 -66z"/>
<path d="M5794 9069 c-10 -18 11 -37 46 -43 68 -11 70 -23 70 -494 l0 -409 93
1 92 1 2 210 c1 116 2 219 2 230 1 19 8 20 194 20 l193 0 1 -177 c2 -268 8
-279 170 -283 120 -3 133 -1 133 26 0 15 -7 19 -33 19 -36 0 -59 19 -73 60 -4
14 -9 207 -10 430 -1 223 -2 408 -3 411 0 3 -42 5 -93 5 l-91 -1 -1 -213 0
-212 -193 2 -194 3 -3 170 c-2 181 -7 202 -53 232 -21 14 -50 18 -135 18 -60
0 -111 -3 -114 -6z"/>
<path d="M7089 8806 c-147 -38 -228 -148 -234 -321 -7 -163 49 -270 177 -340
48 -27 62 -30 148 -30 112 0 167 21 231 89 44 46 47 61 19 76 -16 9 -27 3 -70
-39 -28 -27 -63 -52 -78 -56 -145 -31 -218 28 -230 184 l-4 68 215 -1 c245 -1
224 -10 222 94 -3 117 -64 209 -173 257 -62 27 -158 35 -223 19z m148 -86 c31
-34 53 -102 53 -171 l0 -46 -121 -1 -122 -1 6 72 c8 117 50 176 124 177 22 0
40 -9 60 -30z"/>
<path d="M7740 8810 c-50 -9 -109 -39 -121 -62 -13 -24 -18 -48 -21 -108 -3
-40 -1 -45 20 -48 14 -2 22 2 23 12 5 61 60 128 115 142 37 10 99 -1 128 -22
35 -27 44 -53 41 -113 -5 -79 -43 -103 -165 -105 -54 -1 -55 -2 -55 -30 0 -32
5 -34 85 -37 112 -4 154 -38 157 -128 2 -65 -14 -92 -67 -119 -69 -34 -176
-14 -240 45 l-25 23 -20 -21 -20 -20 40 -35 c22 -18 56 -39 75 -45 19 -6 40
-15 45 -20 11 -8 216 -5 253 4 39 10 104 51 124 78 26 35 38 91 28 137 -14 59
-111 133 -163 123 -5 -1 -6 3 -2 9 3 5 12 10 20 10 27 0 85 42 106 76 58 95
-4 210 -132 244 -49 14 -178 19 -229 10z"/>
<path d="M8445 8812 c-57 -10 -117 -36 -131 -57 -16 -24 -20 -40 -26 -95 -3
-35 -2 -35 40 -38 25 -2 42 1 42 7 0 6 0 13 0 16 -1 19 35 67 65 85 29 18 47
21 86 18 79 -8 113 -53 123 -166 l5 -59 -52 -2 c-156 -5 -236 -24 -296 -69
-82 -61 -85 -211 -5 -286 53 -49 179 -70 265 -45 20 7 52 25 70 42 18 16 35
25 37 19 2 -6 13 -21 25 -34 18 -19 33 -23 83 -24 l60 -1 -1 236 c-1 166 -5
248 -15 276 -28 86 -78 137 -162 164 -36 12 -174 21 -213 13z m198 -361 c4 0
7 -43 6 -93 -3 -97 -12 -122 -59 -155 -46 -33 -117 -21 -141 23 -21 39 -19
114 3 155 22 40 48 59 92 66 17 3 32 6 33 7 2 2 49 0 66 -3z"/>
<path d="M11777 8813 c-2 -1 -21 -5 -43 -9 -21 -3 -51 -13 -66 -22 -32 -18
-58 -77 -58 -127 0 -34 1 -35 38 -35 35 0 38 4 58 48 26 60 74 87 141 79 74
-8 110 -59 120 -167 l5 -57 -44 -1 c-269 -10 -368 -69 -368 -218 0 -119 96
-196 240 -193 76 2 116 16 154 54 15 15 28 26 30 24 37 -56 51 -64 112 -65
l62 0 -3 245 c-2 225 -4 250 -23 293 -33 74 -104 131 -182 145 -31 5 -169 10
-173 6z m186 -362 c4 -1 7 -43 7 -95 0 -94 0 -95 -34 -129 -88 -90 -194 -34
-179 95 7 61 31 96 78 112 65 24 72 24 128 17z"/>
<path d="M12534 8810 c-67 -14 -184 -89 -184 -118 0 -5 -6 -15 -14 -21 -12
-10 -26 -52 -43 -121 -7 -31 -7 -137 1 -175 21 -106 103 -207 198 -244 73 -27
205 -24 264 7 46 24 105 76 122 108 9 16 7 22 -9 32 -18 12 -26 7 -74 -36 -50
-46 -95 -66 -145 -65 -57 1 -73 6 -104 36 -38 37 -56 90 -59 171 l-2 51 210 2
c116 0 213 2 217 2 4 1 6 41 5 89 -3 75 -7 96 -30 135 -35 59 -93 108 -154
130 -53 19 -151 27 -199 17z m124 -76 c39 -27 62 -94 66 -190 l2 -41 -123 0
-123 0 4 56 c6 76 15 111 39 144 32 47 93 61 135 31z"/>
<path d="M13620 8796 c-4 -12 -8 -24 -8 -29 -1 -4 -8 -20 -16 -35 -8 -15 -36
-79 -61 -142 -26 -63 -55 -133 -65 -155 -10 -22 -20 -47 -22 -55 -3 -8 -53 83
-111 203 -59 119 -112 217 -119 218 -15 1 -150 1 -160 0 -3 -1 -5 -153 -5
-338 l2 -338 28 1 c15 1 30 2 35 3 4 0 7 108 7 239 -1 130 1 241 3 245 4 7 76
-136 208 -410 20 -40 40 -74 45 -74 42 -6 44 -3 110 156 37 88 77 181 88 208
12 26 21 51 21 56 0 5 7 22 15 37 14 27 15 20 16 -106 1 -74 1 -139 0 -144 -1
-5 3 -32 9 -62 22 -103 96 -167 210 -181 81 -10 104 17 40 46 -61 27 -69 74
-73 456 l-2 220 -93 1 c-86 0 -95 -1 -102 -20z"/>
<path d="M14288 8815 c-2 -1 -22 -5 -44 -8 -261 -36 -359 -426 -153 -611 70
-64 119 -81 234 -81 89 0 106 3 156 27 87 43 152 123 177 218 4 14 7 66 6 115
0 94 -18 151 -66 216 -28 37 -98 86 -149 104 -38 14 -152 28 -161 20z m93 -81
c21 -10 39 -33 55 -69 33 -72 37 -92 37 -210 0 -191 -68 -298 -177 -278 -66
13 -117 126 -121 267 -6 226 85 353 206 290z"/>
<path d="M15010 8805 c-92 -24 -154 -74 -196 -157 -13 -26 -24 -50 -24 -53 0
-3 0 -6 -1 -7 -6 -20 -10 -55 -12 -108 -7 -160 75 -299 204 -348 90 -33 210
-26 289 17 37 21 100 90 100 111 0 38 -31 31 -86 -19 -66 -60 -132 -79 -199
-58 -36 12 -75 45 -75 64 0 7 -4 13 -8 13 -5 0 -9 6 -10 13 0 6 -5 28 -10 48
-5 19 -9 53 -8 75 l1 39 215 0 215 1 2 79 c2 95 -24 160 -85 216 -75 69 -210
101 -312 74z m137 -72 c40 -26 62 -91 67 -193 l1 -35 -124 -1 -123 -1 6 68 c8
84 25 127 62 157 34 26 75 28 111 5z"/>
<path d="M9701 8800 c-8 -6 -8 -26 0 -35 4 -3 19 -8 35 -11 68 -12 74 -41 74
-365 l0 -266 188 2 c103 1 198 5 212 9 122 36 180 104 175 201 -6 124 -95 183
-284 190 -51 2 -95 6 -98 9 -3 3 -6 47 -8 99 -3 150 -26 169 -203 171 -46 1
-87 -1 -91 -4z m414 -340 c31 -12 64 -48 65 -71 0 -9 3 -19 7 -23 11 -11 3
-88 -14 -123 -9 -20 -28 -37 -52 -47 -36 -14 -105 -15 -118 -2 -4 3 -6 63 -6
132 0 96 3 128 14 135 19 12 72 11 104 -1z"/>
<path d="M10475 8802 c-20 -3 -20 -8 -15 -305 6 -386 -2 -369 185 -373 55 -1
105 3 112 8 18 14 4 38 -22 38 -37 0 -55 10 -72 43 -13 26 -16 76 -16 309 -1
186 -5 278 -12 279 -38 3 -143 4 -160 1z"/>
<path d="M10770 8802 c-6 -2 -10 -14 -10 -26 0 -17 5 -22 23 -21 33 3 65 -23
75 -59 5 -17 9 -135 10 -261 0 -127 1 -248 1 -271 l1 -41 198 3 c209 3 205 3
267 23 80 27 117 68 129 143 13 80 -55 154 -161 176 l-38 8 58 18 c68 21 108
65 112 123 6 98 -71 162 -214 179 -64 7 -433 12 -451 6z m422 -80 c69 -40 61
-162 -11 -192 -39 -16 -102 -22 -115 -11 -10 8 -13 109 -7 203 2 30 80 30 133
0z m11 -297 c44 -21 67 -59 67 -112 0 -51 -18 -83 -59 -107 -45 -26 -138 -31
-149 -7 -7 12 -9 231 -3 250 3 10 111 -8 144 -24z"/>
<path d="M686 7222 c-2 -1 -16 -5 -31 -8 -85 -15 -224 -94 -249 -141 -14 -28
-5 -85 17 -108 7 -6 64 -44 127 -85 63 -40 168 -109 233 -152 65 -43 120 -78
123 -78 2 0 27 -16 54 -35 27 -19 54 -35 59 -35 5 0 11 -3 13 -7 2 -5 40 -32
86 -62 45 -29 82 -56 82 -60 -1 -3 -24 -17 -53 -31 -48 -22 -146 -75 -302
-160 -33 -18 -76 -44 -95 -57 -19 -12 -40 -23 -47 -23 -7 0 -43 16 -80 36
-299 160 -373 194 -418 194 -73 0 -133 -20 -172 -56 -32 -30 -35 -38 -30 -71
2 -21 30 -82 61 -137 31 -54 56 -100 56 -102 0 -3 10 -21 23 -42 13 -20 37
-62 54 -93 l30 -56 -42 -40 c-54 -51 -76 -85 -81 -125 -14 -108 147 -173 356
-144 59 8 239 43 315 61 33 8 72 17 88 20 71 14 85 17 122 27 22 5 47 11 55
13 8 2 88 22 177 44 88 23 169 44 180 46 10 2 52 14 93 25 41 12 82 23 90 25
8 2 56 16 105 30 50 14 99 28 109 30 11 3 40 11 65 19 64 20 285 90 291 91 3
1 12 4 20 7 8 4 53 18 100 33 47 15 92 30 100 33 8 3 20 6 25 8 28 7 390 146
440 168 17 8 64 28 105 46 99 43 298 142 349 175 22 14 43 25 46 25 6 0 89 57
150 103 66 50 148 140 178 195 47 86 36 194 -24 251 -20 19 -91 62 -109 66
-62 16 -81 16 -102 1 -12 -9 -30 -16 -40 -16 -10 0 -18 -4 -18 -10 0 -5 -5
-10 -11 -10 -7 0 -51 -18 -98 -41 -47 -22 -108 -50 -136 -62 -27 -11 -59 -27
-70 -34 -11 -7 -27 -13 -37 -13 -10 0 -18 -4 -18 -10 0 -5 -6 -10 -12 -10 -7
-1 -31 -9 -53 -20 -59 -29 -62 -27 -59 37 3 68 -19 53 249 172 63 28 135 63
135 66 0 5 -285 -3 -306 -8 -12 -3 -38 -8 -58 -11 -50 -8 -125 -25 -161 -36
-16 -6 -64 -19 -105 -31 -76 -21 -318 -103 -355 -120 -64 -29 -158 -58 -168
-52 -7 4 -61 20 -122 35 -127 32 -116 30 -220 58 -44 12 -87 23 -95 25 -17 3
-167 43 -308 81 -51 14 -100 27 -110 29 -9 2 -53 13 -97 25 -44 12 -87 23 -95
25 -8 3 -51 14 -95 25 -142 38 -158 41 -217 43 -33 2 -60 1 -62 -1z"/>
<path d="M7166 7205 c-3 -9 7 -18 30 -25 19 -6 48 -28 65 -48 26 -32 98 -176
132 -267 7 -16 14 -32 18 -35 3 -3 15 -30 28 -60 13 -30 41 -92 62 -137 63
-132 62 -126 33 -198 -31 -77 -85 -131 -141 -140 -67 -12 -74 -15 -71 -38 3
-20 8 -22 62 -20 114 4 171 53 224 195 11 29 26 67 33 83 6 17 13 35 15 40 1
6 21 60 44 120 23 61 55 144 71 185 15 41 49 127 74 192 48 124 52 143 33 150
-18 6 -63 -6 -64 -17 0 -6 -4 -19 -9 -30 -4 -11 -18 -47 -30 -80 -13 -33 -39
-102 -59 -152 -20 -51 -36 -96 -36 -100 -1 -5 -9 -25 -18 -45 l-18 -38 -18 43
c-10 23 -29 65 -41 92 -12 28 -34 76 -49 108 -14 32 -26 62 -26 67 0 6 -4 10
-10 10 -5 0 -10 8 -10 18 0 24 -64 99 -102 118 -41 21 -214 28 -222 9z"/>
<path d="M8898 7214 c-2 -1 -16 -5 -31 -8 -37 -6 -87 -29 -87 -38 0 -5 -6 -8
-13 -8 -18 0 -78 -67 -96 -105 -57 -128 -51 -295 14 -397 37 -56 68 -83 132
-114 52 -26 68 -29 153 -29 109 1 135 11 212 82 53 50 57 62 28 80 -17 11 -25
7 -70 -36 -53 -51 -96 -67 -168 -64 -68 3 -124 64 -137 148 -13 78 -13 104 -2
107 7 3 105 4 220 4 131 -1 207 3 208 9 19 163 -37 281 -161 338 -25 11 -52
22 -60 24 -21 5 -139 11 -142 7z m96 -76 c36 -16 66 -85 73 -167 l5 -69 -120
0 c-139 0 -133 -5 -120 100 15 115 83 173 162 136z"/>
<path d="M10695 7206 c-22 -7 -44 -13 -48 -13 -34 -2 -164 -132 -158 -157 1
-3 -5 -21 -12 -39 -20 -46 -21 -191 -3 -252 31 -102 109 -185 205 -219 79 -27
197 -17 271 23 26 14 110 97 110 109 0 4 -10 13 -22 21 -20 12 -24 10 -52 -22
-67 -77 -191 -106 -251 -59 -52 41 -81 113 -80 202 l0 35 212 1 c117 0 215 3
218 6 3 3 6 37 6 76 2 168 -116 285 -296 296 -33 2 -78 -2 -100 -8z m139 -77
c39 -31 55 -74 60 -171 l4 -57 -124 2 -124 1 5 56 c8 78 32 146 62 170 33 26
83 26 117 -1z"/>
<path d="M11438 7204 c-71 -17 -100 -34 -159 -96 -60 -64 -83 -129 -85 -238
-2 -159 57 -265 184 -327 51 -25 68 -28 157 -28 117 0 165 18 234 87 46 47 50
62 21 78 -17 9 -25 5 -50 -24 -36 -40 -111 -80 -155 -81 -127 -4 -194 86 -198
265 -4 208 56 310 182 310 91 0 163 -60 177 -148 5 -32 10 -39 28 -38 20 1 21
5 18 80 -2 89 -15 117 -63 141 -56 30 -203 39 -291 19z"/>
<path d="M14395 7208 c-114 -35 -195 -113 -220 -213 -14 -60 -17 -81 -18 -125
-1 -154 71 -274 198 -335 57 -28 214 -28 269 -1 37 19 136 109 136 124 0 4
-10 13 -21 20 -19 12 -25 10 -62 -28 -49 -49 -87 -68 -147 -73 -56 -5 -78 3
-118 43 -34 34 -50 79 -56 162 l-4 54 210 -1 c115 0 215 3 220 6 7 4 9 39 6
90 -8 140 -73 228 -199 268 -48 15 -156 20 -194 9z m143 -83 c33 -28 51 -82
56 -167 l3 -56 -123 0 -122 1 3 51 c8 101 21 138 63 173 36 30 83 30 120 -2z"/>
<path d="M6413 7202 c-39 -6 -29 -39 15 -49 66 -15 69 -31 68 -347 -1 -238 1
-277 14 -280 8 -2 51 -3 95 -3 l80 2 0 303 c0 193 4 303 10 304 6 0 57 2 115
2 l106 1 -1 -302 c0 -167 2 -304 5 -304 29 -8 180 -3 181 5 1 6 2 157 3 335 1
258 -2 325 -12 329 -14 5 -643 9 -679 4z"/>
<path d="M8050 7202 c-41 -5 -68 -23 -81 -55 -17 -40 -20 -155 -4 -161 20 -7
36 9 39 40 5 67 50 106 125 109 l49 2 0 -298 c0 -164 3 -302 6 -307 3 -5 45
-8 93 -8 l88 1 2 295 c0 162 2 300 2 306 1 7 39 10 108 10 l107 0 2 28 c0 16
-5 30 -13 33 -15 6 -479 10 -523 5z"/>
<path d="M9314 7201 c-2 -2 -4 -13 -4 -23 0 -18 3 -19 40 -22 25 -1 59 -35 66
-66 3 -14 7 -146 8 -295 l1 -270 445 0 445 0 2 79 c1 43 4 84 7 92 3 8 2 14
-2 14 -8 0 -6 285 2 306 3 8 2 14 -2 14 -4 0 -6 38 -6 85 2 95 9 87 -81 87
-25 0 -58 -1 -75 -1 l-30 -1 0 -305 0 -305 -82 0 -83 0 0 301 c0 260 -2 302
-15 308 -19 8 -158 6 -167 -3 -4 -3 -6 -141 -6 -306 l1 -300 -83 0 -82 0 -1
256 c-2 357 0 355 -205 358 -49 0 -91 -1 -93 -3z"/>
<path d="M11988 7202 c-52 -3 -97 -38 -99 -76 -5 -93 -5 -113 -1 -127 8 -33
35 -13 47 34 19 75 48 98 127 102 l48 2 0 -307 0 -308 93 2 92 1 1 290 c1 160
2 297 3 306 1 13 16 15 99 14 114 -1 122 1 117 26 -2 10 0 19 6 19 5 0 9 -4 9
-10 0 -5 18 -14 39 -20 62 -16 63 -24 65 -360 l1 -265 170 0 c201 -1 263 7
330 40 63 31 87 64 93 128 8 85 -36 137 -144 171 -27 8 -47 15 -44 16 5 1 23
6 53 13 66 16 111 75 109 141 -3 60 -62 135 -107 136 -12 0 -26 5 -31 10 -6 6
-39 13 -75 16 -99 9 -468 10 -462 1 2 -4 -7 -5 -21 -1 -27 6 -435 11 -518 6z
m959 -73 c38 -14 65 -68 58 -114 -10 -66 -59 -102 -140 -100 l-40 0 0 110 c0
108 0 109 25 116 25 7 57 3 97 -12z m13 -297 c49 -19 73 -56 73 -115 0 -84
-34 -120 -123 -132 -19 -3 -47 -2 -62 1 l-27 5 0 130 0 130 57 -5 c31 -2 68
-9 82 -14z"/>
<path d="M13297 7202 c-12 -2 -17 -11 -15 -25 2 -13 10 -21 17 -19 33 7 76
-23 86 -60 2 -5 4 -9 5 -10 2 -2 4 -129 5 -283 l2 -280 81 -1 c45 0 86 2 90 5
5 3 50 85 100 181 50 96 106 203 124 237 l33 63 3 -243 2 -244 94 1 93 1 0
337 c0 304 -1 338 -16 339 -47 3 -152 1 -157 -3 -6 -7 -98 -182 -181 -345 -37
-73 -70 -130 -73 -127 -3 3 -5 85 -6 182 0 223 -10 263 -72 283 -37 12 -158
17 -168 6 -4 -4 -12 -3 -18 1 -6 5 -19 7 -29 4z"/>
<path d="M2755 6064 c-55 -20 -161 -57 -235 -84 -74 -26 -184 -65 -245 -86
-60 -21 -117 -46 -127 -56 -30 -30 -30 -31 67 -140 22 -25 55 -63 73 -85 18
-22 47 -56 65 -75 36 -38 146 -162 192 -216 82 -97 118 -125 152 -119 35 5
133 49 133 60 0 6 3 7 7 3 13 -13 91 84 113 141 22 58 23 116 5 258 -11 92
-15 123 -20 180 -4 33 -9 71 -11 85 -3 14 -7 50 -9 80 -4 40 -11 60 -26 73
-12 9 -24 17 -28 16 -3 0 -51 -16 -106 -35z"/>
</g>
</svg>
