<svg width="193" height="64" viewBox="0 0 193 64" fill="none" xmlns="http://www.w3.org/2000/svg">
<path d="M74.0631 17.585C74.0631 16.9721 73.9789 16.5215 73.8107 16.2331C73.6425 15.9327 73.306 15.7825 72.8013 15.7825H72.6211V15.2417H74.7841C75.2167 15.2417 75.5471 15.3138 75.7754 15.458C76.0037 15.6022 76.166 15.8426 76.2621 16.179C76.3582 16.5035 76.4063 16.9721 76.4063 17.585V20.5591H81.273V15.2417H83.6163V24.7949C83.6163 25.4078 83.7004 25.8644 83.8686 26.1648C84.0369 26.4532 84.3733 26.5974 84.878 26.5974H85.0583V27.1382H82.8953C82.4627 27.1382 82.1322 27.0721 81.9039 26.9399C81.6756 26.7957 81.5134 26.5614 81.4172 26.2369C81.3211 25.9005 81.273 25.4198 81.273 24.7949V21.3702H76.4063V27.1382H74.0631V17.585ZM89.9779 27.3184C89.1488 27.3184 88.4218 27.1262 87.7969 26.7416C87.1721 26.3571 86.6854 25.8344 86.3369 25.1735C86.0004 24.5005 85.8322 23.7435 85.8322 22.9023C85.8322 21.965 86.0004 21.1659 86.3369 20.505C86.6854 19.8441 87.16 19.3454 87.7609 19.0089C88.3617 18.6605 89.0406 18.4862 89.7977 18.4862C90.5427 18.4862 91.2157 18.6364 91.8165 18.9368C92.4173 19.2373 92.892 19.6638 93.2405 20.2166C93.5889 20.7574 93.7632 21.3822 93.7632 22.0912C93.7632 22.3195 93.7512 22.5779 93.7271 22.8663L93.6911 23.2268H88.2656C88.2656 24.3684 88.4398 25.2035 88.7883 25.7322C89.1368 26.249 89.6235 26.5073 90.2483 26.5073C90.8251 26.5073 91.3058 26.3811 91.6903 26.1288C92.0869 25.8644 92.4654 25.4919 92.8259 25.0112L93.3847 25.4258C93.0362 25.9666 92.5976 26.4172 92.0688 26.7777C91.5521 27.1382 90.8552 27.3184 89.9779 27.3184ZM91.3298 22.4157C91.3298 21.2861 91.1976 20.487 90.9333 20.0183C90.6689 19.5377 90.2904 19.2973 89.7977 19.2973C89.3411 19.2973 88.9685 19.5437 88.6801 20.0364C88.4038 20.517 88.2656 21.3101 88.2656 22.4157H91.3298ZM98.2115 27.3184C96.7335 27.3184 95.622 26.8378 94.8769 25.8764L95.4177 25.4258C95.9945 26.1468 96.7455 26.5073 97.6708 26.5073C98.2476 26.5073 98.7042 26.3751 99.0407 26.1108C99.3892 25.8464 99.5634 25.4378 99.5634 24.8851C99.5634 24.2963 99.4012 23.8637 99.0767 23.5873C98.7643 23.3109 98.2055 23.1727 97.4004 23.1727H96.4992V22.3616H97.4004C98.1094 22.3616 98.6021 22.2474 98.8785 22.0191C99.1548 21.7788 99.293 21.3822 99.293 20.8295C99.293 20.3248 99.1368 19.9462 98.8244 19.6939C98.5119 19.4295 98.1274 19.2973 97.6708 19.2973C97.13 19.2973 96.6734 19.4836 96.3009 19.8561C95.9284 20.2166 95.7241 20.6913 95.688 21.2801H95.1473C95.1473 20.6552 95.1713 20.1926 95.2194 19.8922C95.2675 19.5797 95.3936 19.3214 95.5979 19.1171C95.8142 18.9008 96.1447 18.7446 96.5893 18.6484C97.0339 18.5403 97.5446 18.4862 98.1214 18.4862C99.239 18.4862 100.116 18.6845 100.753 19.081C101.402 19.4656 101.726 20.0484 101.726 20.8295C101.726 21.3582 101.528 21.7968 101.132 22.1453C100.747 22.4938 100.224 22.7161 99.5634 22.8122C100.308 22.9083 100.897 23.1427 101.33 23.5152C101.774 23.8877 101.997 24.3443 101.997 24.8851C101.997 25.7142 101.666 26.3271 101.005 26.7236C100.344 27.1202 99.4132 27.3184 98.2115 27.3184ZM106.214 27.3184C105.241 27.3184 104.484 27.1021 103.943 26.6695C103.414 26.2249 103.15 25.6301 103.15 24.8851C103.15 24.2842 103.288 23.7855 103.564 23.389C103.853 22.9924 104.351 22.692 105.06 22.4878C105.769 22.2835 106.755 22.1813 108.016 22.1813H108.287C108.287 21.1359 108.143 20.3969 107.854 19.9643C107.566 19.5196 107.139 19.2973 106.574 19.2973C106.106 19.2973 105.721 19.4115 105.421 19.6398C105.12 19.8681 104.904 20.2947 104.772 20.9196H103.781C103.781 20.511 103.805 20.1625 103.853 19.8741C103.913 19.5857 104.039 19.3334 104.231 19.1171C104.604 18.6965 105.505 18.4862 106.935 18.4862C108.137 18.4862 109.05 18.8047 109.675 19.4415C110.312 20.0664 110.63 21.0097 110.63 22.2715V27.1382H109.098L108.467 26.3271H108.377C108.269 26.4953 108.101 26.6635 107.872 26.8318C107.464 27.1562 106.911 27.3184 106.214 27.3184ZM106.755 26.4172C107.007 26.4172 107.223 26.3691 107.404 26.273C107.584 26.1648 107.758 26.0206 107.926 25.8404C108.082 25.6722 108.203 25.4739 108.287 25.2456V22.9924H108.016C107.163 22.9924 106.544 23.1487 106.16 23.4611C105.775 23.7615 105.583 24.2362 105.583 24.8851C105.583 25.3777 105.685 25.7563 105.889 26.0206C106.094 26.285 106.382 26.4172 106.755 26.4172ZM116.526 27.3184C115.252 27.3184 114.243 26.9279 113.498 26.1468C112.753 25.3537 112.38 24.2422 112.38 22.8122V22.2715C112.38 20.8054 112.506 19.6458 112.759 18.7926C113.023 17.9274 113.377 17.3026 113.822 16.918C114.279 16.5215 114.856 16.2451 115.553 16.0889L118.058 15.5121C118.611 15.3799 119.019 15.2537 119.284 15.1336C119.56 15.0014 119.722 14.8272 119.77 14.6109H120.311V16.0529C120.311 16.6777 119.951 17.0683 119.23 17.2245L116.273 17.8914C115.492 18.0837 114.856 18.4802 114.363 19.081C113.87 19.6699 113.6 20.493 113.552 21.5505H113.642C113.942 20.7934 114.351 20.2166 114.868 19.8201C115.384 19.4115 116.057 19.2072 116.886 19.2072C118.028 19.2072 118.941 19.5497 119.626 20.2346C120.323 20.9076 120.672 21.917 120.672 23.2628C120.672 24.6207 120.305 25.6361 119.572 26.309C118.851 26.982 117.836 27.3184 116.526 27.3184ZM116.526 26.5073C116.982 26.5073 117.379 26.261 117.715 25.7683C118.064 25.2756 118.238 24.4405 118.238 23.2628C118.238 22.4817 118.148 21.8509 117.968 21.3702C117.8 20.8775 117.583 20.529 117.319 20.3248C117.067 20.1205 116.802 20.0183 116.526 20.0183C116.249 20.0183 115.979 20.1205 115.715 20.3248C115.462 20.529 115.246 20.8775 115.066 21.3702C114.898 21.8509 114.813 22.4817 114.813 23.2628C114.813 24.4405 114.982 25.2756 115.318 25.7683C115.667 26.261 116.069 26.5073 116.526 26.5073ZM122.815 21.0097C122.815 20.3969 122.731 19.9462 122.563 19.6578C122.395 19.3574 122.058 19.2072 121.553 19.2072H121.373V18.6665H123.536C123.969 18.6665 124.299 18.7386 124.528 18.8828C124.756 19.027 124.918 19.2673 125.014 19.6038C125.11 19.9282 125.158 20.3969 125.158 21.0097V22.0912H126.33C127.472 22.0912 128.373 22.3135 129.034 22.7581C129.695 23.1907 130.025 23.8096 130.025 24.6147C130.025 25.4198 129.695 26.0447 129.034 26.4893C128.373 26.9219 127.472 27.1382 126.33 27.1382H122.815V21.0097ZM132.549 27.1382C132.116 27.1382 131.786 27.0721 131.557 26.9399C131.329 26.7957 131.167 26.5614 131.071 26.2369C130.974 25.9005 130.926 25.4198 130.926 24.7949V18.6665H133.27V24.7949C133.27 25.4078 133.354 25.8644 133.522 26.1648C133.69 26.4532 134.027 26.5974 134.531 26.5974H134.712V27.1382H132.549ZM125.97 26.4172C126.426 26.4172 126.811 26.279 127.123 26.0026C127.436 25.7142 127.592 25.2516 127.592 24.6147C127.592 23.9778 127.436 23.5212 127.123 23.2448C126.811 22.9564 126.426 22.8122 125.97 22.8122C125.681 22.8122 125.411 22.8543 125.158 22.9384V26.291C125.411 26.3751 125.681 26.4172 125.97 26.4172ZM136.032 21.0097C136.032 20.3969 135.948 19.9462 135.78 19.6578C135.612 19.3574 135.275 19.2072 134.771 19.2072H134.681V18.6665H139.511C140.629 18.6665 141.512 18.8527 142.161 19.2252C142.822 19.5978 143.152 20.1325 143.152 20.8295C143.152 21.3582 142.954 21.7848 142.558 22.1092C142.161 22.4217 141.596 22.6259 140.863 22.7221C141.668 22.8302 142.311 23.0645 142.792 23.425C143.272 23.7735 143.513 24.2302 143.513 24.7949C143.513 26.3571 142.179 27.1382 139.511 27.1382H136.032V21.0097ZM139.007 22.2715C139.487 22.2715 139.89 22.1453 140.214 21.8929C140.551 21.6286 140.719 21.2741 140.719 20.8295C140.719 20.3608 140.563 20.0063 140.25 19.766C139.95 19.5136 139.595 19.3875 139.187 19.3875C138.898 19.3875 138.628 19.4295 138.376 19.5136V22.2715H139.007ZM139.187 26.4172C139.752 26.4172 140.208 26.279 140.557 26.0026C140.905 25.7142 141.079 25.3117 141.079 24.7949C141.079 24.2302 140.893 23.8036 140.521 23.5152C140.16 23.2268 139.655 23.0826 139.007 23.0826H138.376V26.291C138.628 26.3751 138.898 26.4172 139.187 26.4172ZM147.738 27.3184C146.765 27.3184 146.008 27.1021 145.467 26.6695C144.938 26.2249 144.674 25.6301 144.674 24.8851C144.674 24.2842 144.812 23.7855 145.088 23.389C145.377 22.9924 145.876 22.692 146.585 22.4878C147.294 22.2835 148.279 22.1813 149.541 22.1813H149.811C149.811 21.1359 149.667 20.3969 149.378 19.9643C149.09 19.5196 148.663 19.2973 148.099 19.2973C147.63 19.2973 147.245 19.4115 146.945 19.6398C146.645 19.8681 146.428 20.2947 146.296 20.9196H145.305C145.305 20.511 145.329 20.1625 145.377 19.8741C145.437 19.5857 145.563 19.3334 145.755 19.1171C146.128 18.6965 147.029 18.4862 148.459 18.4862C149.661 18.4862 150.574 18.8047 151.199 19.4415C151.836 20.0664 152.154 21.0097 152.154 22.2715V27.1382H150.622L149.991 26.3271H149.901C149.793 26.4953 149.625 26.6635 149.396 26.8318C148.988 27.1562 148.435 27.3184 147.738 27.3184ZM148.279 26.4172C148.531 26.4172 148.748 26.3691 148.928 26.273C149.108 26.1648 149.282 26.0206 149.45 25.8404C149.607 25.6722 149.727 25.4739 149.811 25.2456V22.9924H149.541C148.687 22.9924 148.069 23.1487 147.684 23.4611C147.3 23.7615 147.107 24.2362 147.107 24.8851C147.107 25.3777 147.209 25.7563 147.414 26.0206C147.618 26.285 147.906 26.4172 148.279 26.4172ZM157.906 27.3184C157.077 27.3184 156.35 27.1262 155.725 26.7416C155.1 26.3571 154.613 25.8344 154.265 25.1735C153.928 24.5005 153.76 23.7435 153.76 22.9023C153.76 21.965 153.928 21.1659 154.265 20.505C154.613 19.8441 155.088 19.3454 155.689 19.0089C156.29 18.6605 156.969 18.4862 157.726 18.4862C158.471 18.4862 159.144 18.6364 159.744 18.9368C160.345 19.2373 160.82 19.6638 161.168 20.2166C161.517 20.7574 161.691 21.3822 161.691 22.0912C161.691 22.3195 161.679 22.5779 161.655 22.8663L161.619 23.2268H156.194C156.194 24.3684 156.368 25.2035 156.716 25.7322C157.065 26.249 157.551 26.5073 158.176 26.5073C158.753 26.5073 159.234 26.3811 159.618 26.1288C160.015 25.8644 160.393 25.4919 160.754 25.0112L161.313 25.4258C160.964 25.9666 160.525 26.4172 159.997 26.7777C159.48 27.1382 158.783 27.3184 157.906 27.3184ZM159.258 22.4157C159.258 21.2861 159.126 20.487 158.861 20.0183C158.597 19.5377 158.218 19.2973 157.726 19.2973C157.269 19.2973 156.896 19.5437 156.608 20.0364C156.332 20.517 156.194 21.3101 156.194 22.4157H159.258ZM174.233 27.5888C172.947 27.5888 172.016 27.3064 171.439 26.7416C170.862 26.1648 170.574 25.2756 170.574 24.0739V20.9376L167.978 27.1382H167.383L164.247 20.7574V27.1202H163.346V18.6665H165.545L168.212 24.092L170.556 18.4862H172.917V24.0739C172.917 25.0954 173.013 25.8404 173.205 26.309C173.397 26.7777 173.74 27.0541 174.233 27.1382V27.5888ZM179.244 27.3184C178.367 27.3184 177.598 27.1262 176.937 26.7416C176.288 26.3451 175.789 25.8164 175.441 25.1554C175.092 24.4825 174.918 23.7315 174.918 22.9023C174.918 22.0732 175.092 21.3281 175.441 20.6672C175.789 19.9943 176.288 19.4656 176.937 19.081C177.598 18.6845 178.367 18.4862 179.244 18.4862C180.121 18.4862 180.884 18.6845 181.533 19.081C182.194 19.4656 182.699 19.9943 183.047 20.6672C183.396 21.3281 183.57 22.0732 183.57 22.9023C183.57 23.7315 183.396 24.4825 183.047 25.1554C182.699 25.8164 182.194 26.3451 181.533 26.7416C180.884 27.1262 180.121 27.3184 179.244 27.3184ZM179.244 26.5073C179.857 26.5073 180.325 26.1769 180.65 25.5159C180.974 24.855 181.136 23.9838 181.136 22.9023C181.136 21.8208 180.974 20.9496 180.65 20.2887C180.325 19.6278 179.857 19.2973 179.244 19.2973C178.631 19.2973 178.162 19.6278 177.838 20.2887C177.513 20.9496 177.351 21.8208 177.351 22.9023C177.351 23.9838 177.513 24.855 177.838 25.5159C178.162 26.1769 178.631 26.5073 179.244 26.5073ZM189.027 27.3184C188.198 27.3184 187.471 27.1262 186.846 26.7416C186.221 26.3571 185.734 25.8344 185.386 25.1735C185.05 24.5005 184.881 23.7435 184.881 22.9023C184.881 21.965 185.05 21.1659 185.386 20.505C185.734 19.8441 186.209 19.3454 186.81 19.0089C187.411 18.6605 188.09 18.4862 188.847 18.4862C189.592 18.4862 190.265 18.6364 190.866 18.9368C191.466 19.2373 191.941 19.6638 192.29 20.2166C192.638 20.7574 192.812 21.3822 192.812 22.0912C192.812 22.3195 192.8 22.5779 192.776 22.8663L192.74 23.2268H187.315C187.315 24.3684 187.489 25.2035 187.837 25.7322C188.186 26.249 188.673 26.5073 189.297 26.5073C189.874 26.5073 190.355 26.3811 190.739 26.1288C191.136 25.8644 191.514 25.4919 191.875 25.0112L192.434 25.4258C192.085 25.9666 191.647 26.4172 191.118 26.7777C190.601 27.1382 189.904 27.3184 189.027 27.3184ZM190.379 22.4157C190.379 21.2861 190.247 20.487 189.982 20.0183C189.718 19.5377 189.339 19.2973 188.847 19.2973C188.39 19.2973 188.018 19.5437 187.729 20.0364C187.453 20.517 187.315 21.3101 187.315 22.4157H190.379ZM81.412 41.0097C81.412 40.3969 81.3279 39.9462 81.1597 39.6578C80.9914 39.3574 80.655 39.2072 80.1503 39.2072H80.0601V38.6665H88.9825V47.1382H86.6392V39.4776H83.7553V47.1382H81.412V41.0097ZM91.7171 50.1123C92.378 50.1123 92.9127 49.9861 93.3213 49.7338C93.7299 49.4814 94.0603 49.0248 94.3127 48.3639L94.6912 47.3905L91.4467 40.2887C91.0501 39.4235 90.4914 38.9428 89.7704 38.8467V38.4862H91.3566C91.8853 38.4862 92.3539 38.6184 92.7625 38.8828C93.1711 39.1351 93.4835 39.4836 93.6998 39.9282L95.7727 44.4705L97.9717 38.6665H98.927L95.286 48.3098C94.9495 49.2471 94.559 49.884 94.1144 50.2204C93.6698 50.5689 93.111 50.7432 92.4381 50.7432H91.7171V50.1123ZM102.42 39.4776H101.879C101.315 39.4776 100.888 39.6278 100.6 39.9282C100.311 40.2286 100.167 40.7093 100.167 41.3702H99.6262V40.1085C99.6262 39.1471 100.077 38.6665 100.978 38.6665H107.485V39.4776H104.763V47.1382H102.42V39.4776ZM112.21 47.3184C111.381 47.3184 110.654 47.1262 110.029 46.7416C109.404 46.3571 108.917 45.8344 108.569 45.1735C108.232 44.5005 108.064 43.7435 108.064 42.9023C108.064 41.965 108.232 41.1659 108.569 40.505C108.917 39.8441 109.392 39.3454 109.993 39.0089C110.594 38.6605 111.273 38.4862 112.03 38.4862C112.775 38.4862 113.448 38.6364 114.048 38.9368C114.649 39.2373 115.124 39.6638 115.472 40.2166C115.821 40.7574 115.995 41.3822 115.995 42.0912C115.995 42.3195 115.983 42.5779 115.959 42.8663L115.923 43.2268H110.497C110.497 44.3684 110.672 45.2035 111.02 45.7322C111.369 46.249 111.855 46.5073 112.48 46.5073C113.057 46.5073 113.538 46.3811 113.922 46.1288C114.319 45.8644 114.697 45.4919 115.058 45.0112L115.617 45.4258C115.268 45.9666 114.829 46.4172 114.301 46.7777C113.784 47.1382 113.087 47.3184 112.21 47.3184ZM113.562 42.4157C113.562 41.2861 113.43 40.487 113.165 40.0183C112.901 39.5377 112.522 39.2973 112.03 39.2973C111.573 39.2973 111.2 39.5437 110.912 40.0364C110.636 40.517 110.497 41.3101 110.497 42.4157H113.562ZM117.992 41.0097C117.992 40.3969 117.908 39.9462 117.74 39.6578C117.571 39.3574 117.235 39.2072 116.73 39.2072H116.55V38.6665H118.713C119.146 38.6665 119.476 38.7386 119.704 38.8828C119.933 39.027 120.095 39.2673 120.191 39.6038C120.287 39.9282 120.335 40.3969 120.335 41.0097V46.3271H122.408V38.6665H124.751V46.3271H126.824V38.6665H129.168V47.1382H117.992V41.0097ZM135.058 47.3184C134.229 47.3184 133.502 47.1262 132.877 46.7416C132.252 46.3571 131.765 45.8344 131.417 45.1735C131.08 44.5005 130.912 43.7435 130.912 42.9023C130.912 41.965 131.08 41.1659 131.417 40.505C131.765 39.8441 132.24 39.3454 132.841 39.0089C133.442 38.6605 134.121 38.4862 134.878 38.4862C135.623 38.4862 136.296 38.6364 136.896 38.9368C137.497 39.2373 137.972 39.6638 138.32 40.2166C138.669 40.7574 138.843 41.3822 138.843 42.0912C138.843 42.3195 138.831 42.5779 138.807 42.8663L138.771 43.2268H133.346C133.346 44.3684 133.52 45.2035 133.868 45.7322C134.217 46.249 134.703 46.5073 135.328 46.5073C135.905 46.5073 136.386 46.3811 136.77 46.1288C137.167 45.8644 137.545 45.4919 137.906 45.0112L138.465 45.4258C138.116 45.9666 137.677 46.4172 137.149 46.7777C136.632 47.1382 135.935 47.3184 135.058 47.3184ZM136.41 42.4157C136.41 41.2861 136.278 40.487 136.013 40.0183C135.749 39.5377 135.37 39.2973 134.878 39.2973C134.421 39.2973 134.048 39.5437 133.76 40.0364C133.484 40.517 133.346 41.3101 133.346 42.4157H136.41ZM144.391 47.3184C143.466 47.3184 142.679 47.1202 142.03 46.7236C141.381 46.3271 140.888 45.7983 140.552 45.1374C140.227 44.4645 140.065 43.7195 140.065 42.9023C140.065 42.0852 140.227 41.3462 140.552 40.6853C140.888 40.0123 141.381 39.4776 142.03 39.081C142.679 38.6845 143.466 38.4862 144.391 38.4862C145.833 38.4862 146.764 38.6965 147.185 39.1171C147.389 39.3214 147.515 39.5917 147.563 39.9282C147.611 40.2647 147.635 40.8355 147.635 41.6406H147.095C147.047 40.8835 146.812 40.3067 146.392 39.9102C145.971 39.5016 145.394 39.2973 144.661 39.2973C144 39.2973 143.472 39.6038 143.075 40.2166C142.691 40.8174 142.498 41.7127 142.498 42.9023C142.498 45.3056 143.249 46.5073 144.751 46.5073C145.328 46.5073 145.809 46.3811 146.193 46.1288C146.59 45.8644 146.969 45.4919 147.329 45.0112L147.888 45.4258C147.539 45.9666 147.101 46.4172 146.572 46.7777C146.043 47.1382 145.316 47.3184 144.391 47.3184ZM151.549 39.4776H151.008C150.443 39.4776 150.016 39.6278 149.728 39.9282C149.44 40.2286 149.295 40.7093 149.295 41.3702H148.755V40.1085C148.755 39.1471 149.205 38.6665 150.107 38.6665H156.614V39.4776H153.892V47.1382H151.549V39.4776ZM158.106 41.0097C158.106 40.3969 158.022 39.9462 157.854 39.6578C157.685 39.3574 157.349 39.2072 156.844 39.2072H156.754V38.6665H161.585C162.702 38.6665 163.586 38.8527 164.234 39.2252C164.895 39.5978 165.226 40.1325 165.226 40.8295C165.226 41.3582 165.028 41.7848 164.631 42.1092C164.234 42.4217 163.67 42.6259 162.937 42.7221C163.742 42.8302 164.385 43.0645 164.865 43.425C165.346 43.7735 165.586 44.2302 165.586 44.7949C165.586 46.3571 164.252 47.1382 161.585 47.1382H158.106V41.0097ZM161.08 42.2715C161.561 42.2715 161.963 42.1453 162.288 41.8929C162.624 41.6286 162.792 41.2741 162.792 40.8295C162.792 40.3608 162.636 40.0063 162.324 39.766C162.023 39.5136 161.669 39.3875 161.26 39.3875C160.972 39.3875 160.702 39.4295 160.449 39.5136V42.2715H161.08ZM161.26 46.4172C161.825 46.4172 162.282 46.279 162.63 46.0026C162.979 45.7142 163.153 45.3117 163.153 44.7949C163.153 44.2302 162.967 43.8036 162.594 43.5152C162.234 43.2268 161.729 43.0826 161.08 43.0826H160.449V46.291C160.702 46.3751 160.972 46.4172 161.26 46.4172ZM167.649 41.0097C167.649 40.3969 167.565 39.9462 167.396 39.6578C167.228 39.3574 166.892 39.2072 166.387 39.2072H166.207V38.6665H168.37C168.802 38.6665 169.133 38.7386 169.361 38.8828C169.589 39.027 169.752 39.2673 169.848 39.6038C169.944 39.9282 169.992 40.3969 169.992 41.0097V44.8851L173.236 38.6665H175.399V47.1382H173.056V40.9196L169.812 47.1382H167.649V41.0097ZM181.3 47.3184C180.47 47.3184 179.743 47.1262 179.119 46.7416C178.494 46.3571 178.007 45.8344 177.659 45.1735C177.322 44.5005 177.154 43.7435 177.154 42.9023C177.154 41.965 177.322 41.1659 177.659 40.505C178.007 39.8441 178.482 39.3454 179.082 39.0089C179.683 38.6605 180.362 38.4862 181.119 38.4862C181.864 38.4862 182.537 38.6364 183.138 38.9368C183.739 39.2373 184.214 39.6638 184.562 40.2166C184.911 40.7574 185.085 41.3822 185.085 42.0912C185.085 42.3195 185.073 42.5779 185.049 42.8663L185.013 43.2268H179.587C179.587 44.3684 179.761 45.2035 180.11 45.7322C180.458 46.249 180.945 46.5073 181.57 46.5073C182.147 46.5073 182.627 46.3811 183.012 46.1288C183.408 45.8644 183.787 45.4919 184.148 45.0112L184.706 45.4258C184.358 45.9666 183.919 46.4172 183.39 46.7777C182.874 47.1382 182.177 47.3184 181.3 47.3184ZM182.651 42.4157C182.651 41.2861 182.519 40.487 182.255 40.0183C181.991 39.5377 181.612 39.2973 181.119 39.2973C180.663 39.2973 180.29 39.5437 180.002 40.0364C179.725 40.517 179.587 41.3101 179.587 42.4157H182.651Z" fill="white"/>
<path d="M66.276 31.052C66.276 46.2306 55.0803 58.8432 40.5133 61.0671C40.6362 60.3935 40.6706 59.6958 40.5879 58.9889C40.5879 58.9889 40.5009 58.2451 40.387 57.2715C45.5589 56.3904 50.2283 54.0173 53.9293 50.6044C53.7072 50.4196 53.4859 50.18 53.2677 49.8618C52.2848 48.4276 53.5701 47.0044 53.5701 45.7502C53.5701 44.52 51.0899 44.6212 50.999 43.8064C50.6856 40.9845 52.7307 40.9461 53.821 39.8558C54.9113 38.7655 52.7433 36.2867 51.343 36.4467C49.9331 36.5972 45.9647 35.7956 46.3274 32.7594C46.7692 29.0614 41.616 29.3876 40.8781 27.6616C39.8024 25.1457 41.5906 22.0597 43.923 21.3586C47.2267 20.3656 50.4813 17.6704 50.2271 14.6702C49.9391 11.2722 48.4011 8.2077 45.8679 6.38727C43.2318 5.31933 40.3893 4.65895 37.4154 4.49232C34.7613 4.59729 32.4278 5.18714 32.5343 6.40228C32.7953 9.38006 41.2631 10.1535 39.8421 12.9371C39.1013 14.3882 33.5414 16.4363 34.5797 18.5959C35.2551 20.0004 36.9172 18.7967 36.2967 21.4929C36.0112 22.7336 34.9234 25.0646 33.2505 25.215C31.5398 25.3747 30.1152 20.8427 25.4588 20.6941C23.2575 20.6237 20.1563 24.1287 22.7896 26.6153C24.3842 28.1212 27.3765 24.8055 28.2597 27.3956C28.8821 29.2208 28.1759 33.0549 31.0806 34.6573C32.1394 35.2415 33.7627 35.7506 35.3681 36.5664C32.9852 37.053 30.0573 37.961 26.6 39.2928L23.687 38.5242C24.9064 37.5091 26.8878 36.7945 26.3893 34.5763C25.657 31.3174 19.9985 32.5465 16.0975 28.6456C14.9007 27.449 12.3481 23.4757 12.3586 18.702C10.414 22.3955 9.30734 26.596 9.30734 31.0521C9.30734 32.4237 9.41198 33.7715 9.61317 35.0878C9.56728 35.087 9.52192 35.079 9.47613 35.079C8.24761 35.079 7.04274 35.3371 5.92609 35.8252C5.67944 34.2695 5.5478 32.6762 5.5478 31.0522C5.5478 14.3096 19.1692 0.687744 35.9117 0.687744C52.6546 0.687528 66.276 14.3094 66.276 31.052ZM43.4992 39.9022L36.0833 43.311L36.1983 41.6951L41.0025 39.5264C40.3173 39.4774 39.6073 39.4587 38.8985 39.4587C36.2441 39.4587 31.7595 40.8023 26.7994 42.7711L10.8914 38.5751C9.40475 38.1829 7.82201 38.4244 6.51994 39.2425L5.73775 39.7338C4.97414 40.2135 4.96604 41.3237 5.72253 41.8146L15.2852 48.0186C13.0008 49.1869 10.8335 50.3734 8.92289 51.5065L4.01592 48.9087C3.2144 48.4844 2.26677 48.434 1.42497 48.7712L0.96049 48.9574C0.267826 49.2346 -0.02235 50.0584 0.343745 50.7086L3.04691 55.5112L3.04809 55.5108C2.02821 56.3882 1.447 57.1159 1.447 57.6195C1.447 59.1266 3.30166 59.5033 4.93645 59.5033C7.85225 59.5033 46.3588 50.6867 46.3588 42.6991C46.3586 41.1172 45.2767 40.3261 43.4992 39.9022ZM27.2638 55.4973L35.7372 52.5124C36.1104 52.3808 36.5092 52.6297 36.5553 53.0228L37.2981 59.3743C37.4838 60.9615 36.6301 62.4888 35.181 63.1625L34.3863 63.5318C33.89 63.7625 33.3012 63.6389 32.9396 63.2282L27.0056 56.4873C26.7167 56.159 26.8513 55.6427 27.2638 55.4973Z" fill="white"/>
</svg>
