<svg width="227" height="64" viewBox="0 0 227 64" fill="none" xmlns="http://www.w3.org/2000/svg">
<path d="M80.3013 16.52C80.3013 15.976 80.2266 15.576 80.0773 15.32C79.9279 15.0533 79.6293 14.92 79.1813 14.92H79.0213V14.44H80.9413C81.3253 14.44 81.6186 14.504 81.8213 14.632C82.0239 14.76 82.1679 14.9733 82.2533 15.272C82.3386 15.56 82.3813 15.976 82.3813 16.52V19.16H86.7013V14.44H88.7812V22.92C88.7812 23.464 88.8559 23.8693 89.0053 24.136C89.1546 24.392 89.4533 24.52 89.9013 24.52H90.0613V25H88.1413C87.7573 25 87.4639 24.9413 87.2613 24.824C87.0586 24.696 86.9146 24.488 86.8293 24.2C86.7439 23.9013 86.7013 23.4747 86.7013 22.92V19.88H82.3813V25H80.3013V16.52ZM94.4283 25.16C93.6923 25.16 93.0469 24.9893 92.4923 24.648C91.9376 24.3067 91.5056 23.8427 91.1963 23.256C90.8976 22.6587 90.7483 21.9867 90.7483 21.24C90.7483 20.408 90.8976 19.6987 91.1963 19.112C91.5056 18.5253 91.9269 18.0827 92.4603 17.784C92.9936 17.4747 93.5963 17.32 94.2682 17.32C94.9296 17.32 95.5269 17.4533 96.0603 17.72C96.5936 17.9867 97.0149 18.3653 97.3243 18.856C97.6336 19.336 97.7883 19.8907 97.7883 20.52C97.7883 20.7227 97.7776 20.952 97.7563 21.208L97.7243 21.528H92.9083C92.9083 22.5413 93.0629 23.2827 93.3723 23.752C93.6816 24.2107 94.1136 24.44 94.6683 24.44C95.1803 24.44 95.6069 24.328 95.9483 24.104C96.3003 23.8693 96.6363 23.5387 96.9563 23.112L97.4523 23.48C97.1429 23.96 96.7536 24.36 96.2843 24.68C95.8256 25 95.2069 25.16 94.4283 25.16ZM95.6283 20.808C95.6283 19.8053 95.5109 19.096 95.2763 18.68C95.0416 18.2533 94.7056 18.04 94.2682 18.04C93.8629 18.04 93.5323 18.2587 93.2763 18.696C93.0309 19.1227 92.9083 19.8267 92.9083 20.808H95.6283ZM101.737 25.16C100.425 25.16 99.4382 24.7333 98.7769 23.88L99.2569 23.48C99.7689 24.12 100.436 24.44 101.257 24.44C101.769 24.44 102.174 24.3227 102.473 24.088C102.782 23.8533 102.937 23.4907 102.937 23C102.937 22.4773 102.793 22.0933 102.505 21.848C102.228 21.6027 101.732 21.48 101.017 21.48H100.217V20.76H101.017C101.646 20.76 102.084 20.6587 102.329 20.456C102.574 20.2427 102.697 19.8907 102.697 19.4C102.697 18.952 102.558 18.616 102.281 18.392C102.004 18.1573 101.662 18.04 101.257 18.04C100.777 18.04 100.372 18.2053 100.041 18.536C99.7102 18.856 99.5289 19.2773 99.4969 19.8H99.0169C99.0169 19.2453 99.0382 18.8347 99.0809 18.568C99.1235 18.2907 99.2355 18.0613 99.4169 17.88C99.6089 17.688 99.9022 17.5493 100.297 17.464C100.692 17.368 101.145 17.32 101.657 17.32C102.649 17.32 103.428 17.496 103.993 17.848C104.569 18.1893 104.857 18.7067 104.857 19.4C104.857 19.8693 104.681 20.2587 104.329 20.568C103.988 20.8773 103.524 21.0747 102.937 21.16C103.598 21.2453 104.121 21.4533 104.505 21.784C104.9 22.1147 105.097 22.52 105.097 23C105.097 23.736 104.804 24.28 104.217 24.632C103.63 24.984 102.804 25.16 101.737 25.16ZM108.84 25.16C107.976 25.16 107.304 24.968 106.824 24.584C106.355 24.1893 106.12 23.6613 106.12 23C106.12 22.4667 106.243 22.024 106.488 21.672C106.744 21.32 107.187 21.0533 107.816 20.872C108.446 20.6907 109.32 20.6 110.44 20.6H110.68C110.68 19.672 110.552 19.016 110.296 18.632C110.04 18.2373 109.662 18.04 109.16 18.04C108.744 18.04 108.403 18.1413 108.136 18.344C107.87 18.5467 107.678 18.9253 107.56 19.48H106.68C106.68 19.1173 106.702 18.808 106.744 18.552C106.798 18.296 106.91 18.072 107.08 17.88C107.411 17.5067 108.211 17.32 109.48 17.32C110.547 17.32 111.358 17.6027 111.912 18.168C112.478 18.7227 112.76 19.56 112.76 20.68V25H111.4L110.84 24.28H110.76C110.664 24.4293 110.515 24.5787 110.312 24.728C109.95 25.016 109.459 25.16 108.84 25.16ZM109.32 24.36C109.544 24.36 109.736 24.3173 109.896 24.232C110.056 24.136 110.211 24.008 110.36 23.848C110.499 23.6987 110.606 23.5227 110.68 23.32V21.32H110.44C109.683 21.32 109.134 21.4587 108.792 21.736C108.451 22.0027 108.28 22.424 108.28 23C108.28 23.4373 108.371 23.7733 108.552 24.008C108.734 24.2427 108.99 24.36 109.32 24.36ZM117.994 25.16C116.863 25.16 115.967 24.8133 115.306 24.12C114.644 23.416 114.314 22.4293 114.314 21.16V20.68C114.314 19.3787 114.426 18.3493 114.65 17.592C114.884 16.824 115.199 16.2693 115.594 15.928C115.999 15.576 116.511 15.3307 117.13 15.192L119.354 14.68C119.844 14.5627 120.207 14.4507 120.442 14.344C120.687 14.2267 120.831 14.072 120.874 13.88H121.354V15.16C121.354 15.7147 121.034 16.0613 120.394 16.2L117.77 16.792C117.076 16.9627 116.511 17.3147 116.074 17.848C115.636 18.3707 115.396 19.1013 115.354 20.04H115.434C115.7 19.368 116.063 18.856 116.522 18.504C116.98 18.1413 117.578 17.96 118.314 17.96C119.327 17.96 120.138 18.264 120.746 18.872C121.364 19.4693 121.674 20.3653 121.674 21.56C121.674 22.7653 121.348 23.6667 120.698 24.264C120.058 24.8613 119.156 25.16 117.994 25.16ZM117.994 24.44C118.399 24.44 118.751 24.2213 119.05 23.784C119.359 23.3467 119.514 22.6053 119.514 21.56C119.514 20.8667 119.434 20.3067 119.274 19.88C119.124 19.4427 118.932 19.1333 118.698 18.952C118.474 18.7707 118.239 18.68 117.994 18.68C117.748 18.68 117.508 18.7707 117.274 18.952C117.05 19.1333 116.858 19.4427 116.698 19.88C116.548 20.3067 116.474 20.8667 116.474 21.56C116.474 22.6053 116.623 23.3467 116.922 23.784C117.231 24.2213 117.588 24.44 117.994 24.44ZM123.577 19.56C123.577 19.016 123.502 18.616 123.353 18.36C123.203 18.0933 122.905 17.96 122.457 17.96H122.296V17.48H124.217C124.601 17.48 124.894 17.544 125.097 17.672C125.299 17.8 125.443 18.0133 125.529 18.312C125.614 18.6 125.657 19.016 125.657 19.56V20.52H126.697C127.71 20.52 128.51 20.7173 129.097 21.112C129.683 21.496 129.977 22.0453 129.977 22.76C129.977 23.4747 129.683 24.0293 129.097 24.424C128.51 24.808 127.71 25 126.697 25H123.577V19.56ZM132.217 25C131.833 25 131.539 24.9413 131.337 24.824C131.134 24.696 130.99 24.488 130.905 24.2C130.819 23.9013 130.777 23.4747 130.777 22.92V17.48H132.857V22.92C132.857 23.464 132.931 23.8693 133.081 24.136C133.23 24.392 133.529 24.52 133.977 24.52H134.137V25H132.217ZM126.377 24.36C126.782 24.36 127.123 24.2373 127.401 23.992C127.678 23.736 127.817 23.3253 127.817 22.76C127.817 22.1947 127.678 21.7893 127.401 21.544C127.123 21.288 126.782 21.16 126.377 21.16C126.121 21.16 125.881 21.1973 125.657 21.272V24.248C125.881 24.3227 126.121 24.36 126.377 24.36ZM135.309 19.56C135.309 19.016 135.234 18.616 135.085 18.36C134.936 18.0933 134.637 17.96 134.189 17.96H134.109V17.48H138.397C139.389 17.48 140.173 17.6453 140.749 17.976C141.336 18.3067 141.629 18.7813 141.629 19.4C141.629 19.8693 141.453 20.248 141.101 20.536C140.749 20.8133 140.248 20.9947 139.597 21.08C140.312 21.176 140.882 21.384 141.309 21.704C141.736 22.0133 141.949 22.4187 141.949 22.92C141.949 24.3067 140.765 25 138.397 25H135.309V19.56ZM137.949 20.68C138.376 20.68 138.733 20.568 139.021 20.344C139.32 20.1093 139.469 19.7947 139.469 19.4C139.469 18.984 139.33 18.6693 139.053 18.456C138.786 18.232 138.472 18.12 138.109 18.12C137.853 18.12 137.613 18.1573 137.389 18.232V20.68H137.949ZM138.109 24.36C138.61 24.36 139.016 24.2373 139.325 23.992C139.634 23.736 139.789 23.3787 139.789 22.92C139.789 22.4187 139.624 22.04 139.293 21.784C138.973 21.528 138.525 21.4 137.949 21.4H137.389V24.248C137.613 24.3227 137.853 24.36 138.109 24.36ZM145.7 25.16C144.836 25.16 144.164 24.968 143.684 24.584C143.214 24.1893 142.98 23.6613 142.98 23C142.98 22.4667 143.102 22.024 143.348 21.672C143.604 21.32 144.046 21.0533 144.676 20.872C145.305 20.6907 146.18 20.6 147.3 20.6H147.54C147.54 19.672 147.412 19.016 147.156 18.632C146.9 18.2373 146.521 18.04 146.02 18.04C145.604 18.04 145.262 18.1413 144.996 18.344C144.729 18.5467 144.537 18.9253 144.42 19.48H143.54C143.54 19.1173 143.561 18.808 143.604 18.552C143.657 18.296 143.769 18.072 143.94 17.88C144.27 17.5067 145.07 17.32 146.34 17.32C147.406 17.32 148.217 17.6027 148.772 18.168C149.337 18.7227 149.62 19.56 149.62 20.68V25H148.26L147.7 24.28H147.62C147.524 24.4293 147.374 24.5787 147.172 24.728C146.809 25.016 146.318 25.16 145.7 25.16ZM146.18 24.36C146.404 24.36 146.596 24.3173 146.756 24.232C146.916 24.136 147.07 24.008 147.22 23.848C147.358 23.6987 147.465 23.5227 147.54 23.32V21.32H147.3C146.542 21.32 145.993 21.4587 145.652 21.736C145.31 22.0027 145.14 22.424 145.14 23C145.14 23.4373 145.23 23.7733 145.412 24.008C145.593 24.2427 145.849 24.36 146.18 24.36ZM154.725 25.16C153.989 25.16 153.344 24.9893 152.789 24.648C152.234 24.3067 151.802 23.8427 151.493 23.256C151.194 22.6587 151.045 21.9867 151.045 21.24C151.045 20.408 151.194 19.6987 151.493 19.112C151.802 18.5253 152.224 18.0827 152.757 17.784C153.29 17.4747 153.893 17.32 154.565 17.32C155.226 17.32 155.824 17.4533 156.357 17.72C156.89 17.9867 157.312 18.3653 157.621 18.856C157.93 19.336 158.085 19.8907 158.085 20.52C158.085 20.7227 158.074 20.952 158.053 21.208L158.021 21.528H153.205C153.205 22.5413 153.36 23.2827 153.669 23.752C153.978 24.2107 154.41 24.44 154.965 24.44C155.477 24.44 155.904 24.328 156.245 24.104C156.597 23.8693 156.933 23.5387 157.253 23.112L157.749 23.48C157.44 23.96 157.05 24.36 156.581 24.68C156.122 25 155.504 25.16 154.725 25.16ZM155.925 20.808C155.925 19.8053 155.808 19.096 155.573 18.68C155.338 18.2533 155.002 18.04 154.565 18.04C154.16 18.04 153.829 18.2587 153.573 18.696C153.328 19.1227 153.205 19.8267 153.205 20.808H155.925ZM169.218 25.4C168.076 25.4 167.25 25.1493 166.738 24.648C166.226 24.136 165.97 23.3467 165.97 22.28V19.496L163.666 25H163.138L160.354 19.336V24.984H159.554V17.48H161.506L163.874 22.296L165.954 17.32H168.05V22.28C168.05 23.1867 168.135 23.848 168.306 24.264C168.476 24.68 168.78 24.9253 169.218 25V25.4ZM173.666 25.16C172.887 25.16 172.205 24.9893 171.618 24.648C171.042 24.296 170.599 23.8267 170.29 23.24C169.981 22.6427 169.826 21.976 169.826 21.24C169.826 20.504 169.981 19.8427 170.29 19.256C170.599 18.6587 171.042 18.1893 171.618 17.848C172.205 17.496 172.887 17.32 173.666 17.32C174.445 17.32 175.122 17.496 175.698 17.848C176.285 18.1893 176.733 18.6587 177.042 19.256C177.351 19.8427 177.506 20.504 177.506 21.24C177.506 21.976 177.351 22.6427 177.042 23.24C176.733 23.8267 176.285 24.296 175.698 24.648C175.122 24.9893 174.445 25.16 173.666 25.16ZM173.666 24.44C174.21 24.44 174.626 24.1467 174.914 23.56C175.202 22.9733 175.346 22.2 175.346 21.24C175.346 20.28 175.202 19.5067 174.914 18.92C174.626 18.3333 174.21 18.04 173.666 18.04C173.122 18.04 172.706 18.3333 172.418 18.92C172.13 19.5067 171.986 20.28 171.986 21.24C171.986 22.2 172.13 22.9733 172.418 23.56C172.706 24.1467 173.122 24.44 173.666 24.44ZM182.35 25.16C181.614 25.16 180.969 24.9893 180.414 24.648C179.859 24.3067 179.427 23.8427 179.118 23.256C178.819 22.6587 178.67 21.9867 178.67 21.24C178.67 20.408 178.819 19.6987 179.118 19.112C179.427 18.5253 179.849 18.0827 180.382 17.784C180.915 17.4747 181.518 17.32 182.19 17.32C182.851 17.32 183.449 17.4533 183.982 17.72C184.515 17.9867 184.937 18.3653 185.246 18.856C185.555 19.336 185.71 19.8907 185.71 20.52C185.71 20.7227 185.699 20.952 185.678 21.208L185.646 21.528H180.83C180.83 22.5413 180.985 23.2827 181.294 23.752C181.603 24.2107 182.035 24.44 182.59 24.44C183.102 24.44 183.529 24.328 183.87 24.104C184.222 23.8693 184.558 23.5387 184.878 23.112L185.374 23.48C185.065 23.96 184.675 24.36 184.206 24.68C183.747 25 183.129 25.16 182.35 25.16ZM183.55 20.808C183.55 19.8053 183.433 19.096 183.198 18.68C182.963 18.2533 182.627 18.04 182.19 18.04C181.785 18.04 181.454 18.2587 181.198 18.696C180.953 19.1227 180.83 19.8267 180.83 20.808H183.55ZM86.8246 37.56C86.8246 37.016 86.75 36.616 86.6006 36.36C86.4513 36.0933 86.1526 35.96 85.7046 35.96H85.6246V35.48H93.5446V43H91.4646V36.2H88.9046V43H86.8246V37.56ZM95.972 45.64C96.5587 45.64 97.0333 45.528 97.396 45.304C97.7587 45.08 98.052 44.6747 98.276 44.088L98.612 43.224L95.732 36.92C95.38 36.152 94.884 35.7253 94.244 35.64V35.32H95.652C96.1213 35.32 96.5373 35.4373 96.9 35.672C97.2627 35.896 97.54 36.2053 97.732 36.6L99.572 40.632L101.524 35.48H102.372L99.14 44.04C98.8413 44.872 98.4947 45.4373 98.1 45.736C97.7053 46.0453 97.2093 46.2 96.612 46.2H95.972V45.64ZM105.473 36.2H104.993C104.491 36.2 104.113 36.3333 103.857 36.6C103.601 36.8667 103.473 37.2933 103.473 37.88H102.993V36.76C102.993 35.9067 103.393 35.48 104.193 35.48H109.969V36.2H107.553V43H105.473V36.2ZM114.163 43.16C113.427 43.16 112.781 42.9893 112.227 42.648C111.672 42.3067 111.24 41.8427 110.931 41.256C110.632 40.6587 110.483 39.9867 110.483 39.24C110.483 38.408 110.632 37.6987 110.931 37.112C111.24 36.5253 111.661 36.0827 112.195 35.784C112.728 35.4747 113.331 35.32 114.003 35.32C114.664 35.32 115.261 35.4533 115.795 35.72C116.328 35.9867 116.749 36.3653 117.059 36.856C117.368 37.336 117.523 37.8907 117.523 38.52C117.523 38.7227 117.512 38.952 117.491 39.208L117.459 39.528H112.643C112.643 40.5413 112.797 41.2827 113.107 41.752C113.416 42.2107 113.848 42.44 114.403 42.44C114.915 42.44 115.341 42.328 115.683 42.104C116.035 41.8693 116.371 41.5387 116.691 41.112L117.187 41.48C116.877 41.96 116.488 42.36 116.019 42.68C115.56 43 114.941 43.16 114.163 43.16ZM115.363 38.808C115.363 37.8053 115.245 37.096 115.011 36.68C114.776 36.2533 114.44 36.04 114.003 36.04C113.597 36.04 113.267 36.2587 113.011 36.696C112.765 37.1227 112.643 37.8267 112.643 38.808H115.363ZM119.295 37.56C119.295 37.016 119.221 36.616 119.071 36.36C118.922 36.0933 118.623 35.96 118.175 35.96H118.015V35.48H119.935C120.319 35.48 120.613 35.544 120.815 35.672C121.018 35.8 121.162 36.0133 121.247 36.312C121.333 36.6 121.375 37.016 121.375 37.56V42.28H123.215V35.48H125.295V42.28H127.135V35.48H129.215V43H119.295V37.56ZM134.444 43.16C133.708 43.16 133.063 42.9893 132.508 42.648C131.953 42.3067 131.521 41.8427 131.212 41.256C130.913 40.6587 130.764 39.9867 130.764 39.24C130.764 38.408 130.913 37.6987 131.212 37.112C131.521 36.5253 131.943 36.0827 132.476 35.784C133.009 35.4747 133.612 35.32 134.284 35.32C134.945 35.32 135.543 35.4533 136.076 35.72C136.609 35.9867 137.031 36.3653 137.34 36.856C137.649 37.336 137.804 37.8907 137.804 38.52C137.804 38.7227 137.793 38.952 137.772 39.208L137.74 39.528H132.924C132.924 40.5413 133.079 41.2827 133.388 41.752C133.697 42.2107 134.129 42.44 134.684 42.44C135.196 42.44 135.623 42.328 135.964 42.104C136.316 41.8693 136.652 41.5387 136.972 41.112L137.468 41.48C137.159 41.96 136.769 42.36 136.3 42.68C135.841 43 135.223 43.16 134.444 43.16ZM135.644 38.808C135.644 37.8053 135.527 37.096 135.292 36.68C135.057 36.2533 134.721 36.04 134.284 36.04C133.879 36.04 133.548 36.2587 133.292 36.696C133.047 37.1227 132.924 37.8267 132.924 38.808H135.644ZM142.729 43.16C141.907 43.16 141.209 42.984 140.633 42.632C140.057 42.28 139.619 41.8107 139.321 41.224C139.033 40.6267 138.889 39.9653 138.889 39.24C138.889 38.5147 139.033 37.8587 139.321 37.272C139.619 36.6747 140.057 36.2 140.633 35.848C141.209 35.496 141.907 35.32 142.729 35.32C144.009 35.32 144.835 35.5067 145.209 35.88C145.39 36.0613 145.502 36.3013 145.545 36.6C145.587 36.8987 145.609 37.4053 145.609 38.12H145.129C145.086 37.448 144.878 36.936 144.505 36.584C144.131 36.2213 143.619 36.04 142.969 36.04C142.382 36.04 141.913 36.312 141.561 36.856C141.219 37.3893 141.049 38.184 141.049 39.24C141.049 41.3733 141.715 42.44 143.049 42.44C143.561 42.44 143.987 42.328 144.329 42.104C144.681 41.8693 145.017 41.5387 145.337 41.112L145.833 41.48C145.523 41.96 145.134 42.36 144.665 42.68C144.195 43 143.55 43.16 142.729 43.16ZM149.082 36.2H148.602C148.101 36.2 147.722 36.3333 147.466 36.6C147.21 36.8667 147.082 37.2933 147.082 37.88H146.602V36.76C146.602 35.9067 147.002 35.48 147.802 35.48H153.578V36.2H151.162V43H149.082V36.2ZM154.903 37.56C154.903 37.016 154.828 36.616 154.679 36.36C154.529 36.0933 154.231 35.96 153.783 35.96H153.703V35.48H157.991C158.983 35.48 159.767 35.6453 160.343 35.976C160.929 36.3067 161.223 36.7813 161.223 37.4C161.223 37.8693 161.047 38.248 160.695 38.536C160.343 38.8133 159.841 38.9947 159.191 39.08C159.905 39.176 160.476 39.384 160.903 39.704C161.329 40.0133 161.543 40.4187 161.543 40.92C161.543 42.3067 160.359 43 157.991 43H154.903V37.56ZM157.543 38.68C157.969 38.68 158.327 38.568 158.615 38.344C158.913 38.1093 159.063 37.7947 159.063 37.4C159.063 36.984 158.924 36.6693 158.647 36.456C158.38 36.232 158.065 36.12 157.703 36.12C157.447 36.12 157.207 36.1573 156.983 36.232V38.68H157.543ZM157.703 42.36C158.204 42.36 158.609 42.2373 158.919 41.992C159.228 41.736 159.383 41.3787 159.383 40.92C159.383 40.4187 159.217 40.04 158.887 39.784C158.567 39.528 158.119 39.4 157.543 39.4H156.983V42.248C157.207 42.3227 157.447 42.36 157.703 42.36ZM163.373 37.56C163.373 37.016 163.299 36.616 163.149 36.36C163 36.0933 162.701 35.96 162.253 35.96H162.093V35.48H164.013C164.397 35.48 164.691 35.544 164.893 35.672C165.096 35.8 165.24 36.0133 165.325 36.312C165.411 36.6 165.453 37.016 165.453 37.56V41L168.333 35.48H170.253V43H168.173V37.48L165.293 43H163.373V37.56ZM175.491 43.16C174.755 43.16 174.109 42.9893 173.555 42.648C173 42.3067 172.568 41.8427 172.259 41.256C171.96 40.6587 171.811 39.9867 171.811 39.24C171.811 38.408 171.96 37.6987 172.259 37.112C172.568 36.5253 172.989 36.0827 173.523 35.784C174.056 35.4747 174.659 35.32 175.331 35.32C175.992 35.32 176.589 35.4533 177.123 35.72C177.656 35.9867 178.077 36.3653 178.387 36.856C178.696 37.336 178.851 37.8907 178.851 38.52C178.851 38.7227 178.84 38.952 178.819 39.208L178.787 39.528H173.971C173.971 40.5413 174.125 41.2827 174.435 41.752C174.744 42.2107 175.176 42.44 175.731 42.44C176.243 42.44 176.669 42.328 177.011 42.104C177.363 41.8693 177.699 41.5387 178.019 41.112L178.515 41.48C178.205 41.96 177.816 42.36 177.347 42.68C176.888 43 176.269 43.16 175.491 43.16ZM176.691 38.808C176.691 37.8053 176.573 37.096 176.339 36.68C176.104 36.2533 175.768 36.04 175.331 36.04C174.925 36.04 174.595 36.2587 174.339 36.696C174.093 37.1227 173.971 37.8267 173.971 38.808H176.691Z" fill="#212121"/>
<path d="M66 30.8862C66 46.0438 54.8198 58.639 40.2729 60.8598C40.3957 60.1871 40.4301 59.4904 40.3475 58.7845C40.3475 58.7845 40.2605 58.0417 40.1469 57.0695C45.3116 56.1896 49.9745 53.8197 53.6704 50.4115C53.4486 50.227 53.2276 49.9877 53.0098 49.67C52.0282 48.2378 53.3117 46.8166 53.3117 45.5641C53.3117 44.3356 50.8349 44.4366 50.7442 43.6229C50.4312 40.805 52.4734 40.7666 53.5622 39.6778C54.651 38.589 52.4861 36.1137 51.0877 36.2734C49.6798 36.4238 45.7169 35.6232 46.079 32.5912C46.5202 28.8983 41.3741 29.2241 40.6372 27.5005C39.563 24.9881 41.3488 21.9063 43.678 21.2062C46.9771 20.2146 50.2272 17.5232 49.9733 14.5271C49.6857 11.1338 48.1498 8.07351 45.6201 6.2556C42.9877 5.18914 40.1491 4.52968 37.1793 4.36328C34.5289 4.4681 32.1986 5.05714 32.3049 6.27059C32.5656 9.24426 41.0217 10.0166 39.6027 12.7964C38.8629 14.2455 33.3107 16.2907 34.3476 18.4474C35.0221 19.8499 36.6819 18.6479 36.0622 21.3404C35.7771 22.5793 34.6908 24.9071 33.0202 25.0573C31.3118 25.2168 29.8893 20.6911 25.2393 20.5427C23.041 20.4724 19.9441 23.9725 22.5737 26.4557C24.1661 27.9595 27.1544 24.6484 28.0363 27.2349C28.6578 29.0575 27.9526 32.8864 30.8533 34.4866C31.9107 35.0699 33.5317 35.5784 35.1349 36.393C32.7553 36.879 29.8315 37.7857 26.3789 39.1156L23.4699 38.3481C24.6877 37.3344 26.6663 36.6208 26.1685 34.4057C25.4372 31.1513 19.7865 32.3787 15.8909 28.4832C14.6958 27.2883 12.1467 23.3204 12.1572 18.5533C10.2153 22.2417 9.11015 26.4364 9.11015 30.8863C9.11015 32.256 9.21465 33.6019 9.41556 34.9164C9.36973 34.9157 9.32444 34.9077 9.27871 34.9077C8.05189 34.9077 6.84868 35.1654 5.73358 35.6528C5.48727 34.0993 5.35581 32.5082 5.35581 30.8864C5.35581 14.167 18.9584 0.563965 35.6777 0.563965C52.3974 0.563749 66 14.1668 66 30.8862ZM43.2547 39.7242L35.8491 43.1283L35.964 41.5146L40.7615 39.3489C40.0772 39.2999 39.3682 39.2813 38.6604 39.2813C36.0097 39.2813 31.5313 40.6231 26.578 42.5891L10.692 38.3989C9.20742 38.0072 7.62688 38.2485 6.32661 39.0654L5.5455 39.5561C4.78294 40.0351 4.77486 41.1437 5.5303 41.634L15.0797 47.8294C12.7985 48.996 10.6342 50.1809 8.72623 51.3125L3.82605 48.7182C3.02564 48.2945 2.07932 48.2442 1.23868 48.5809L0.774846 48.7668C0.0831405 49.0437 -0.206634 49.8663 0.158954 50.5156L2.85838 55.3116L2.85956 55.3112C1.84109 56.1874 1.26068 56.9141 1.26068 57.4169C1.26068 58.922 3.11278 59.2981 4.74531 59.2981C7.65707 59.2981 46.1104 50.4937 46.1104 42.5172C46.1102 40.9375 45.0298 40.1475 43.2547 39.7242ZM27.0418 55.2977L35.5035 52.3169C35.8762 52.1856 36.2744 52.434 36.3204 52.8266L37.0622 59.1694C37.2476 60.7544 36.3951 62.2796 34.9481 62.9523L34.1545 63.3211C33.6588 63.5515 33.0708 63.428 32.7097 63.0179L26.7839 56.2863C26.4954 55.9585 26.6298 55.4429 27.0418 55.2977Z" fill="#212121"/>
</svg>
