<svg width="227" height="64" viewBox="0 0 227 64" fill="none" xmlns="http://www.w3.org/2000/svg">
<path d="M101.776 17.46C101.776 16.848 101.692 16.398 101.524 16.11C101.356 15.81 101.02 15.66 100.516 15.66H100.336V15.12H102.496C102.928 15.12 103.258 15.192 103.486 15.336C103.714 15.48 103.876 15.72 103.972 16.056C104.068 16.38 104.116 16.848 104.116 17.46V20.43H108.976V15.12H111.316V24.66C111.316 25.272 111.4 25.728 111.568 26.028C111.736 26.316 112.072 26.46 112.576 26.46H112.756V27H110.596C110.164 27 109.834 26.934 109.606 26.802C109.378 26.658 109.216 26.424 109.12 26.1C109.024 25.764 108.976 25.284 108.976 24.66V21.24H104.116V27H101.776V17.46ZM117.669 27.18C116.841 27.18 116.115 26.988 115.491 26.604C114.867 26.22 114.381 25.698 114.033 25.038C113.697 24.366 113.529 23.61 113.529 22.77C113.529 21.834 113.697 21.036 114.033 20.376C114.381 19.716 114.855 19.218 115.455 18.882C116.055 18.534 116.733 18.36 117.489 18.36C118.233 18.36 118.905 18.51 119.505 18.81C120.105 19.11 120.579 19.536 120.927 20.088C121.275 20.628 121.449 21.252 121.449 21.96C121.449 22.188 121.437 22.446 121.413 22.734L121.377 23.094H115.959C115.959 24.234 116.133 25.068 116.481 25.596C116.829 26.112 117.315 26.37 117.939 26.37C118.515 26.37 118.995 26.244 119.379 25.992C119.775 25.728 120.153 25.356 120.513 24.876L121.071 25.29C120.723 25.83 120.285 26.28 119.757 26.64C119.241 27 118.545 27.18 117.669 27.18ZM119.019 22.284C119.019 21.156 118.887 20.358 118.623 19.89C118.359 19.41 117.981 19.17 117.489 19.17C117.033 19.17 116.661 19.416 116.373 19.908C116.097 20.388 115.959 21.18 115.959 22.284H119.019ZM125.891 27.18C124.415 27.18 123.305 26.7 122.561 25.74L123.101 25.29C123.677 26.01 124.427 26.37 125.351 26.37C125.927 26.37 126.383 26.238 126.719 25.974C127.067 25.71 127.241 25.302 127.241 24.75C127.241 24.162 127.079 23.73 126.755 23.454C126.443 23.178 125.885 23.04 125.081 23.04H124.181V22.23H125.081C125.789 22.23 126.281 22.116 126.557 21.888C126.833 21.648 126.971 21.252 126.971 20.7C126.971 20.196 126.815 19.818 126.503 19.566C126.191 19.302 125.807 19.17 125.351 19.17C124.811 19.17 124.355 19.356 123.983 19.728C123.611 20.088 123.407 20.562 123.371 21.15H122.831C122.831 20.526 122.855 20.064 122.903 19.764C122.951 19.452 123.077 19.194 123.281 18.99C123.497 18.774 123.827 18.618 124.271 18.522C124.715 18.414 125.225 18.36 125.801 18.36C126.917 18.36 127.793 18.558 128.429 18.954C129.077 19.338 129.401 19.92 129.401 20.7C129.401 21.228 129.203 21.666 128.807 22.014C128.423 22.362 127.901 22.584 127.241 22.68C127.985 22.776 128.573 23.01 129.005 23.382C129.449 23.754 129.671 24.21 129.671 24.75C129.671 25.578 129.341 26.19 128.681 26.586C128.021 26.982 127.091 27.18 125.891 27.18ZM133.883 27.18C132.911 27.18 132.155 26.964 131.615 26.532C131.087 26.088 130.823 25.494 130.823 24.75C130.823 24.15 130.961 23.652 131.237 23.256C131.525 22.86 132.023 22.56 132.731 22.356C133.439 22.152 134.423 22.05 135.683 22.05H135.953C135.953 21.006 135.809 20.268 135.521 19.836C135.233 19.392 134.807 19.17 134.243 19.17C133.775 19.17 133.391 19.284 133.091 19.512C132.791 19.74 132.575 20.166 132.443 20.79H131.453C131.453 20.382 131.477 20.034 131.525 19.746C131.585 19.458 131.711 19.206 131.903 18.99C132.275 18.57 133.175 18.36 134.603 18.36C135.803 18.36 136.715 18.678 137.339 19.314C137.975 19.938 138.293 20.88 138.293 22.14V27H136.763L136.133 26.19H136.043C135.935 26.358 135.767 26.526 135.539 26.694C135.131 27.018 134.579 27.18 133.883 27.18ZM134.423 26.28C134.675 26.28 134.891 26.232 135.071 26.136C135.251 26.028 135.425 25.884 135.593 25.704C135.749 25.536 135.869 25.338 135.953 25.11V22.86H135.683C134.831 22.86 134.213 23.016 133.829 23.328C133.445 23.628 133.253 24.102 133.253 24.75C133.253 25.242 133.355 25.62 133.559 25.884C133.763 26.148 134.051 26.28 134.423 26.28ZM144.18 27.18C142.908 27.18 141.9 26.79 141.156 26.01C140.412 25.218 140.04 24.108 140.04 22.68V22.14C140.04 20.676 140.166 19.518 140.418 18.666C140.682 17.802 141.036 17.178 141.48 16.794C141.936 16.398 142.512 16.122 143.208 15.966L145.71 15.39C146.262 15.258 146.67 15.132 146.934 15.012C147.21 14.88 147.372 14.706 147.42 14.49H147.96V15.93C147.96 16.554 147.6 16.944 146.88 17.1L143.928 17.766C143.148 17.958 142.512 18.354 142.02 18.954C141.528 19.542 141.258 20.364 141.21 21.42H141.3C141.6 20.664 142.008 20.088 142.524 19.692C143.04 19.284 143.712 19.08 144.54 19.08C145.68 19.08 146.592 19.422 147.276 20.106C147.972 20.778 148.32 21.786 148.32 23.13C148.32 24.486 147.954 25.5 147.222 26.172C146.502 26.844 145.488 27.18 144.18 27.18ZM144.18 26.37C144.636 26.37 145.032 26.124 145.368 25.632C145.716 25.14 145.89 24.306 145.89 23.13C145.89 22.35 145.8 21.72 145.62 21.24C145.452 20.748 145.236 20.4 144.972 20.196C144.72 19.992 144.456 19.89 144.18 19.89C143.904 19.89 143.634 19.992 143.37 20.196C143.118 20.4 142.902 20.748 142.722 21.24C142.554 21.72 142.47 22.35 142.47 23.13C142.47 24.306 142.638 25.14 142.974 25.632C143.322 26.124 143.724 26.37 144.18 26.37ZM150.461 20.88C150.461 20.268 150.377 19.818 150.209 19.53C150.041 19.23 149.705 19.08 149.201 19.08H149.021V18.54H151.181C151.613 18.54 151.943 18.612 152.171 18.756C152.399 18.9 152.561 19.14 152.657 19.476C152.753 19.8 152.801 20.268 152.801 20.88V21.96H153.971C155.111 21.96 156.011 22.182 156.671 22.626C157.331 23.058 157.661 23.676 157.661 24.48C157.661 25.284 157.331 25.908 156.671 26.352C156.011 26.784 155.111 27 153.971 27H150.461V20.88ZM160.181 27C159.749 27 159.419 26.934 159.191 26.802C158.963 26.658 158.801 26.424 158.705 26.1C158.609 25.764 158.561 25.284 158.561 24.66V18.54H160.901V24.66C160.901 25.272 160.985 25.728 161.153 26.028C161.321 26.316 161.657 26.46 162.161 26.46H162.341V27H160.181ZM153.611 26.28C154.067 26.28 154.451 26.142 154.763 25.866C155.075 25.578 155.231 25.116 155.231 24.48C155.231 23.844 155.075 23.388 154.763 23.112C154.451 22.824 154.067 22.68 153.611 22.68C153.323 22.68 153.053 22.722 152.801 22.806V26.154C153.053 26.238 153.323 26.28 153.611 26.28ZM163.66 20.88C163.66 20.268 163.576 19.818 163.408 19.53C163.24 19.23 162.904 19.08 162.4 19.08H162.31V18.54H167.134C168.25 18.54 169.132 18.726 169.78 19.098C170.44 19.47 170.77 20.004 170.77 20.7C170.77 21.228 170.572 21.654 170.176 21.978C169.78 22.29 169.216 22.494 168.484 22.59C169.288 22.698 169.93 22.932 170.41 23.292C170.89 23.64 171.13 24.096 171.13 24.66C171.13 26.22 169.798 27 167.134 27H163.66V20.88ZM166.63 22.14C167.11 22.14 167.512 22.014 167.836 21.762C168.172 21.498 168.34 21.144 168.34 20.7C168.34 20.232 168.184 19.878 167.872 19.638C167.572 19.386 167.218 19.26 166.81 19.26C166.522 19.26 166.252 19.302 166 19.386V22.14H166.63ZM166.81 26.28C167.374 26.28 167.83 26.142 168.178 25.866C168.526 25.578 168.7 25.176 168.7 24.66C168.7 24.096 168.514 23.67 168.142 23.382C167.782 23.094 167.278 22.95 166.63 22.95H166V26.154C166.252 26.238 166.522 26.28 166.81 26.28ZM175.35 27.18C174.378 27.18 173.622 26.964 173.082 26.532C172.554 26.088 172.29 25.494 172.29 24.75C172.29 24.15 172.428 23.652 172.704 23.256C172.992 22.86 173.49 22.56 174.198 22.356C174.906 22.152 175.89 22.05 177.15 22.05H177.42C177.42 21.006 177.276 20.268 176.988 19.836C176.7 19.392 176.274 19.17 175.71 19.17C175.242 19.17 174.858 19.284 174.558 19.512C174.258 19.74 174.042 20.166 173.91 20.79H172.92C172.92 20.382 172.944 20.034 172.992 19.746C173.052 19.458 173.178 19.206 173.37 18.99C173.742 18.57 174.642 18.36 176.07 18.36C177.27 18.36 178.182 18.678 178.806 19.314C179.442 19.938 179.76 20.88 179.76 22.14V27H178.23L177.6 26.19H177.51C177.402 26.358 177.234 26.526 177.006 26.694C176.598 27.018 176.046 27.18 175.35 27.18ZM175.89 26.28C176.142 26.28 176.358 26.232 176.538 26.136C176.718 26.028 176.892 25.884 177.06 25.704C177.216 25.536 177.336 25.338 177.42 25.11V22.86H177.15C176.298 22.86 175.68 23.016 175.296 23.328C174.912 23.628 174.72 24.102 174.72 24.75C174.72 25.242 174.822 25.62 175.026 25.884C175.23 26.148 175.518 26.28 175.89 26.28ZM185.503 27.18C184.675 27.18 183.949 26.988 183.325 26.604C182.701 26.22 182.215 25.698 181.867 25.038C181.531 24.366 181.363 23.61 181.363 22.77C181.363 21.834 181.531 21.036 181.867 20.376C182.215 19.716 182.689 19.218 183.289 18.882C183.889 18.534 184.567 18.36 185.323 18.36C186.067 18.36 186.739 18.51 187.339 18.81C187.939 19.11 188.413 19.536 188.761 20.088C189.109 20.628 189.283 21.252 189.283 21.96C189.283 22.188 189.271 22.446 189.247 22.734L189.211 23.094H183.793C183.793 24.234 183.967 25.068 184.315 25.596C184.663 26.112 185.149 26.37 185.773 26.37C186.349 26.37 186.829 26.244 187.213 25.992C187.609 25.728 187.987 25.356 188.347 24.876L188.905 25.29C188.557 25.83 188.119 26.28 187.591 26.64C187.075 27 186.379 27.18 185.503 27.18ZM186.853 22.284C186.853 21.156 186.721 20.358 186.457 19.89C186.193 19.41 185.815 19.17 185.323 19.17C184.867 19.17 184.495 19.416 184.207 19.908C183.931 20.388 183.793 21.18 183.793 22.284H186.853ZM201.807 27.45C200.523 27.45 199.593 27.168 199.017 26.604C198.441 26.028 198.153 25.14 198.153 23.94V20.808L195.561 27H194.967L191.835 20.628V26.982H190.935V18.54H193.131L195.795 23.958L198.135 18.36H200.493V23.94C200.493 24.96 200.589 25.704 200.781 26.172C200.973 26.64 201.315 26.916 201.807 27V27.45ZM206.812 27.18C205.936 27.18 205.168 26.988 204.508 26.604C203.86 26.208 203.362 25.68 203.014 25.02C202.666 24.348 202.492 23.598 202.492 22.77C202.492 21.942 202.666 21.198 203.014 20.538C203.362 19.866 203.86 19.338 204.508 18.954C205.168 18.558 205.936 18.36 206.812 18.36C207.688 18.36 208.45 18.558 209.098 18.954C209.758 19.338 210.262 19.866 210.61 20.538C210.958 21.198 211.132 21.942 211.132 22.77C211.132 23.598 210.958 24.348 210.61 25.02C210.262 25.68 209.758 26.208 209.098 26.604C208.45 26.988 207.688 27.18 206.812 27.18ZM206.812 26.37C207.424 26.37 207.892 26.04 208.216 25.38C208.54 24.72 208.702 23.85 208.702 22.77C208.702 21.69 208.54 20.82 208.216 20.16C207.892 19.5 207.424 19.17 206.812 19.17C206.2 19.17 205.732 19.5 205.408 20.16C205.084 20.82 204.922 21.69 204.922 22.77C204.922 23.85 205.084 24.72 205.408 25.38C205.732 26.04 206.2 26.37 206.812 26.37ZM216.581 27.18C215.753 27.18 215.027 26.988 214.403 26.604C213.779 26.22 213.293 25.698 212.945 25.038C212.609 24.366 212.441 23.61 212.441 22.77C212.441 21.834 212.609 21.036 212.945 20.376C213.293 19.716 213.767 19.218 214.367 18.882C214.967 18.534 215.645 18.36 216.401 18.36C217.145 18.36 217.817 18.51 218.417 18.81C219.017 19.11 219.491 19.536 219.839 20.088C220.187 20.628 220.361 21.252 220.361 21.96C220.361 22.188 220.349 22.446 220.325 22.734L220.289 23.094H214.871C214.871 24.234 215.045 25.068 215.393 25.596C215.741 26.112 216.227 26.37 216.851 26.37C217.427 26.37 217.907 26.244 218.291 25.992C218.687 25.728 219.065 25.356 219.425 24.876L219.983 25.29C219.635 25.83 219.197 26.28 218.669 26.64C218.153 27 217.457 27.18 216.581 27.18ZM217.931 22.284C217.931 21.156 217.799 20.358 217.535 19.89C217.271 19.41 216.893 19.17 216.401 19.17C215.945 19.17 215.573 19.416 215.285 19.908C215.009 20.388 214.871 21.18 214.871 22.284H217.931ZM109.115 40.88C109.115 40.268 109.031 39.818 108.863 39.53C108.695 39.23 108.359 39.08 107.855 39.08H107.765V38.54H116.675V47H114.335V39.35H111.455V47H109.115V40.88ZM119.406 49.97C120.066 49.97 120.6 49.844 121.008 49.592C121.416 49.34 121.746 48.884 121.998 48.224L122.376 47.252L119.136 40.16C118.74 39.296 118.182 38.816 117.462 38.72V38.36H119.046C119.574 38.36 120.042 38.492 120.45 38.756C120.858 39.008 121.17 39.356 121.386 39.8L123.456 44.336L125.652 38.54H126.606L122.97 48.17C122.634 49.106 122.244 49.742 121.8 50.078C121.356 50.426 120.798 50.6 120.126 50.6H119.406V49.97ZM130.094 39.35H129.554C128.99 39.35 128.564 39.5 128.276 39.8C127.988 40.1 127.844 40.58 127.844 41.24H127.304V39.98C127.304 39.02 127.754 38.54 128.654 38.54H135.152V39.35H132.434V47H130.094V39.35ZM139.87 47.18C139.042 47.18 138.316 46.988 137.692 46.604C137.068 46.22 136.582 45.698 136.234 45.038C135.898 44.366 135.73 43.61 135.73 42.77C135.73 41.834 135.898 41.036 136.234 40.376C136.582 39.716 137.056 39.218 137.656 38.882C138.256 38.534 138.934 38.36 139.69 38.36C140.434 38.36 141.106 38.51 141.706 38.81C142.306 39.11 142.78 39.536 143.128 40.088C143.476 40.628 143.65 41.252 143.65 41.96C143.65 42.188 143.638 42.446 143.614 42.734L143.578 43.094H138.16C138.16 44.234 138.334 45.068 138.682 45.596C139.03 46.112 139.516 46.37 140.14 46.37C140.716 46.37 141.196 46.244 141.58 45.992C141.976 45.728 142.354 45.356 142.714 44.876L143.272 45.29C142.924 45.83 142.486 46.28 141.958 46.64C141.442 47 140.746 47.18 139.87 47.18ZM141.22 42.284C141.22 41.156 141.088 40.358 140.824 39.89C140.56 39.41 140.182 39.17 139.69 39.17C139.234 39.17 138.862 39.416 138.574 39.908C138.298 40.388 138.16 41.18 138.16 42.284H141.22ZM145.645 40.88C145.645 40.268 145.561 39.818 145.393 39.53C145.225 39.23 144.889 39.08 144.385 39.08H144.205V38.54H146.365C146.797 38.54 147.127 38.612 147.355 38.756C147.583 38.9 147.745 39.14 147.841 39.476C147.937 39.8 147.985 40.268 147.985 40.88V46.19H150.055V38.54H152.395V46.19H154.465V38.54H156.805V47H145.645V40.88ZM162.687 47.18C161.859 47.18 161.133 46.988 160.509 46.604C159.885 46.22 159.399 45.698 159.051 45.038C158.715 44.366 158.547 43.61 158.547 42.77C158.547 41.834 158.715 41.036 159.051 40.376C159.399 39.716 159.873 39.218 160.473 38.882C161.073 38.534 161.751 38.36 162.507 38.36C163.251 38.36 163.923 38.51 164.523 38.81C165.123 39.11 165.597 39.536 165.945 40.088C166.293 40.628 166.467 41.252 166.467 41.96C166.467 42.188 166.455 42.446 166.431 42.734L166.395 43.094H160.977C160.977 44.234 161.151 45.068 161.499 45.596C161.847 46.112 162.333 46.37 162.957 46.37C163.533 46.37 164.013 46.244 164.397 45.992C164.793 45.728 165.171 45.356 165.531 44.876L166.089 45.29C165.741 45.83 165.303 46.28 164.775 46.64C164.259 47 163.563 47.18 162.687 47.18ZM164.037 42.284C164.037 41.156 163.905 40.358 163.641 39.89C163.377 39.41 162.999 39.17 162.507 39.17C162.051 39.17 161.679 39.416 161.391 39.908C161.115 40.388 160.977 41.18 160.977 42.284H164.037ZM172.007 47.18C171.083 47.18 170.297 46.982 169.649 46.586C169.001 46.19 168.509 45.662 168.173 45.002C167.849 44.33 167.687 43.586 167.687 42.77C167.687 41.954 167.849 41.216 168.173 40.556C168.509 39.884 169.001 39.35 169.649 38.954C170.297 38.558 171.083 38.36 172.007 38.36C173.447 38.36 174.377 38.57 174.797 38.99C175.001 39.194 175.127 39.464 175.175 39.8C175.223 40.136 175.247 40.706 175.247 41.51H174.707C174.659 40.754 174.425 40.178 174.005 39.782C173.585 39.374 173.009 39.17 172.277 39.17C171.617 39.17 171.089 39.476 170.693 40.088C170.309 40.688 170.117 41.582 170.117 42.77C170.117 45.17 170.867 46.37 172.367 46.37C172.943 46.37 173.423 46.244 173.807 45.992C174.203 45.728 174.581 45.356 174.941 44.876L175.499 45.29C175.151 45.83 174.713 46.28 174.185 46.64C173.657 47 172.931 47.18 172.007 47.18ZM179.155 39.35H178.615C178.051 39.35 177.625 39.5 177.337 39.8C177.049 40.1 176.905 40.58 176.905 41.24H176.365V39.98C176.365 39.02 176.815 38.54 177.715 38.54H184.213V39.35H181.495V47H179.155V39.35ZM185.703 40.88C185.703 40.268 185.619 39.818 185.451 39.53C185.283 39.23 184.947 39.08 184.443 39.08H184.353V38.54H189.177C190.293 38.54 191.175 38.726 191.823 39.098C192.483 39.47 192.813 40.004 192.813 40.7C192.813 41.228 192.615 41.654 192.219 41.978C191.823 42.29 191.259 42.494 190.527 42.59C191.331 42.698 191.973 42.932 192.453 43.292C192.933 43.64 193.173 44.096 193.173 44.66C193.173 46.22 191.841 47 189.177 47H185.703V40.88ZM188.673 42.14C189.153 42.14 189.555 42.014 189.879 41.762C190.215 41.498 190.383 41.144 190.383 40.7C190.383 40.232 190.227 39.878 189.915 39.638C189.615 39.386 189.261 39.26 188.853 39.26C188.565 39.26 188.295 39.302 188.043 39.386V42.14H188.673ZM188.853 46.28C189.417 46.28 189.873 46.142 190.221 45.866C190.569 45.578 190.743 45.176 190.743 44.66C190.743 44.096 190.557 43.67 190.185 43.382C189.825 43.094 189.321 42.95 188.673 42.95H188.043V46.154C188.295 46.238 188.565 46.28 188.853 46.28ZM195.233 40.88C195.233 40.268 195.149 39.818 194.981 39.53C194.813 39.23 194.477 39.08 193.973 39.08H193.793V38.54H195.953C196.385 38.54 196.715 38.612 196.943 38.756C197.171 38.9 197.333 39.14 197.429 39.476C197.525 39.8 197.573 40.268 197.573 40.88V44.75L200.813 38.54H202.973V47H200.633V40.79L197.393 47H195.233V40.88ZM208.865 47.18C208.037 47.18 207.311 46.988 206.687 46.604C206.063 46.22 205.577 45.698 205.229 45.038C204.893 44.366 204.725 43.61 204.725 42.77C204.725 41.834 204.893 41.036 205.229 40.376C205.577 39.716 206.051 39.218 206.651 38.882C207.251 38.534 207.929 38.36 208.685 38.36C209.429 38.36 210.101 38.51 210.701 38.81C211.301 39.11 211.775 39.536 212.123 40.088C212.471 40.628 212.645 41.252 212.645 41.96C212.645 42.188 212.633 42.446 212.609 42.734L212.573 43.094H207.155C207.155 44.234 207.329 45.068 207.677 45.596C208.025 46.112 208.511 46.37 209.135 46.37C209.711 46.37 210.191 46.244 210.575 45.992C210.971 45.728 211.349 45.356 211.709 44.876L212.267 45.29C211.919 45.83 211.481 46.28 210.953 46.64C210.437 47 209.741 47.18 208.865 47.18ZM210.215 42.284C210.215 41.156 210.083 40.358 209.819 39.89C209.555 39.41 209.177 39.17 208.685 39.17C208.229 39.17 207.857 39.416 207.569 39.908C207.293 40.388 207.155 41.18 207.155 42.284H210.215Z" fill="black"/>
<path d="M66 30.8867C66 46.0443 54.8198 58.6395 40.2729 60.8603C40.3957 60.1876 40.4301 59.4909 40.3475 58.785C40.3475 58.785 40.2605 58.0422 40.1469 57.0699C45.3116 56.1901 49.9745 53.8202 53.6704 50.412C53.4486 50.2275 53.2276 49.9882 53.0098 49.6705C52.0282 48.2382 53.3117 46.8171 53.3117 45.5646C53.3117 44.336 50.8349 44.4371 50.7442 43.6234C50.4312 40.8055 52.4734 40.7671 53.5622 39.6783C54.651 38.5895 52.4861 36.1142 51.0877 36.2739C49.6798 36.4242 45.7169 35.6237 46.079 32.5917C46.5202 28.8988 41.3741 29.2246 40.6372 27.501C39.563 24.9886 41.3488 21.9068 43.678 21.2067C46.9771 20.2151 50.2272 17.5237 49.9733 14.5276C49.6857 11.1343 48.1498 8.074 45.6201 6.25609C42.9877 5.18963 40.1491 4.53017 37.1793 4.36377C34.5289 4.46859 32.1986 5.05763 32.3049 6.27108C32.5656 9.24475 41.0217 10.0171 39.6027 12.7969C38.8629 14.246 33.3107 16.2912 34.3476 18.4479C35.0221 19.8504 36.6819 18.6483 36.0622 21.3409C35.7771 22.5798 34.6908 24.9076 33.0202 25.0578C31.3118 25.2173 29.8893 20.6915 25.2393 20.5432C23.041 20.4728 19.9441 23.973 22.5737 26.4562C24.1661 27.96 27.1544 24.6488 28.0363 27.2354C28.6578 29.058 27.9526 32.8869 30.8533 34.4871C31.9107 35.0704 33.5317 35.5789 35.1349 36.3935C32.7553 36.8794 29.8315 37.7862 26.3789 39.1161L23.4699 38.3486C24.6877 37.3349 26.6663 36.6213 26.1685 34.4062C25.4372 31.1518 19.7865 32.3792 15.8909 28.4836C14.6958 27.2887 12.1467 23.3209 12.1572 18.5538C10.2153 22.2422 9.11015 26.4369 9.11015 30.8868C9.11015 32.2565 9.21465 33.6024 9.41556 34.9169C9.36973 34.9162 9.32443 34.9082 9.27871 34.9082C8.05189 34.9082 6.84868 35.1659 5.73358 35.6533C5.48727 34.0998 5.35581 32.5087 5.35581 30.8869C5.35581 14.1675 18.9584 0.564453 35.6777 0.564453C52.3974 0.564237 66 14.1672 66 30.8867ZM43.2547 39.7247L35.8491 43.1287L35.964 41.5151L40.7615 39.3494C40.0772 39.3004 39.3682 39.2818 38.6604 39.2818C36.0097 39.2818 31.5313 40.6235 26.578 42.5896L10.692 38.3994C9.20742 38.0077 7.62688 38.2489 6.32661 39.0659L5.5455 39.5565C4.78294 40.0356 4.77486 41.1442 5.5303 41.6345L15.0797 47.8298C12.7985 48.9965 10.6342 50.1814 8.72623 51.313L3.82605 48.7187C3.02564 48.295 2.07932 48.2447 1.23868 48.5814L0.774846 48.7673C0.0831405 49.0442 -0.206634 49.8668 0.158954 50.5161L2.85838 55.3121L2.85956 55.3117C1.84109 56.1879 1.26068 56.9146 1.26068 57.4174C1.26068 58.9225 3.11278 59.2986 4.74531 59.2986C7.65707 59.2986 46.1104 50.4942 46.1104 42.5177C46.1102 40.938 45.0298 40.148 43.2547 39.7247ZM27.0418 55.2982L35.5035 52.3174C35.8762 52.1861 36.2744 52.4345 36.3204 52.8271L37.0622 59.1699C37.2476 60.7548 36.3951 62.2801 34.9481 62.9528L34.1545 63.3216C33.6588 63.552 33.0708 63.4285 32.7097 63.0184L26.7839 56.2868C26.4954 55.959 26.6298 55.4434 27.0418 55.2982Z" fill="black"/>
</svg>
