<svg width="228" height="63" viewBox="0 0 228 63" fill="none" xmlns="http://www.w3.org/2000/svg">
<path d="M101.918 17.4619C101.918 16.8491 101.833 16.3985 101.665 16.1101C101.497 15.8096 101.161 15.6594 100.656 15.6594H100.476V15.1187H102.639C103.071 15.1187 103.402 15.1908 103.63 15.335C103.858 15.4792 104.02 15.7195 104.117 16.056C104.213 16.3804 104.261 16.8491 104.261 17.4619V20.436H109.128V15.1187H111.471V24.6719C111.471 25.2847 111.555 25.7414 111.723 26.0418C111.891 26.3302 112.228 26.4744 112.733 26.4744H112.913V27.0151H110.75C110.317 27.0151 109.987 26.949 109.758 26.8169C109.53 26.6727 109.368 26.4383 109.272 26.1139C109.176 25.7774 109.128 25.2968 109.128 24.6719V21.2472H104.261V27.0151H101.918V17.4619ZM117.832 27.1954C117.003 27.1954 116.276 27.0031 115.651 26.6186C115.027 26.2341 114.54 25.7113 114.191 25.0504C113.855 24.3775 113.687 23.6204 113.687 22.7793C113.687 21.842 113.855 21.0429 114.191 20.382C114.54 19.721 115.015 19.2224 115.615 18.8859C116.216 18.5374 116.895 18.3632 117.652 18.3632C118.397 18.3632 119.07 18.5134 119.671 18.8138C120.272 19.1142 120.746 19.5408 121.095 20.0936C121.443 20.6343 121.618 21.2592 121.618 21.9682C121.618 22.1965 121.606 22.4548 121.582 22.7432L121.546 23.1037H116.12C116.12 24.2453 116.294 25.0805 116.643 25.6092C116.991 26.1259 117.478 26.3843 118.103 26.3843C118.68 26.3843 119.16 26.2581 119.545 26.0057C119.941 25.7414 120.32 25.3689 120.68 24.8882L121.239 25.3028C120.891 25.8435 120.452 26.2941 119.923 26.6546C119.407 27.0151 118.71 27.1954 117.832 27.1954ZM119.184 22.2926C119.184 21.163 119.052 20.3639 118.788 19.8953C118.523 19.4146 118.145 19.1743 117.652 19.1743C117.196 19.1743 116.823 19.4206 116.535 19.9133C116.258 20.394 116.12 21.1871 116.12 22.2926H119.184ZM126.066 27.1954C124.588 27.1954 123.476 26.7147 122.731 25.7534L123.272 25.3028C123.849 26.0238 124.6 26.3843 125.525 26.3843C126.102 26.3843 126.559 26.2521 126.895 25.9877C127.244 25.7234 127.418 25.3148 127.418 24.762C127.418 24.1732 127.256 23.7406 126.931 23.4642C126.619 23.1878 126.06 23.0497 125.255 23.0497H124.354V22.2385H125.255C125.964 22.2385 126.457 22.1244 126.733 21.8961C127.009 21.6557 127.148 21.2592 127.148 20.7064C127.148 20.2017 126.991 19.8232 126.679 19.5708C126.366 19.3065 125.982 19.1743 125.525 19.1743C124.985 19.1743 124.528 19.3605 124.155 19.7331C123.783 20.0936 123.579 20.5682 123.543 21.157H123.002C123.002 20.5322 123.026 20.0695 123.074 19.7691C123.122 19.4567 123.248 19.1983 123.452 18.994C123.669 18.7777 123.999 18.6215 124.444 18.5254C124.888 18.4172 125.399 18.3632 125.976 18.3632C127.093 18.3632 127.971 18.5614 128.608 18.958C129.256 19.3425 129.581 19.9253 129.581 20.7064C129.581 21.2351 129.383 21.6737 128.986 22.0222C128.602 22.3707 128.079 22.593 127.418 22.6892C128.163 22.7853 128.752 23.0196 129.184 23.3921C129.629 23.7646 129.851 24.2213 129.851 24.762C129.851 25.5912 129.521 26.204 128.86 26.6006C128.199 26.9971 127.268 27.1954 126.066 27.1954ZM134.068 27.1954C133.095 27.1954 132.338 26.9791 131.797 26.5465C131.269 26.1019 131.004 25.5071 131.004 24.762C131.004 24.1612 131.142 23.6625 131.419 23.266C131.707 22.8694 132.206 22.569 132.915 22.3647C133.624 22.1604 134.609 22.0583 135.871 22.0583H136.141C136.141 21.0128 135.997 20.2738 135.709 19.8412C135.42 19.3966 134.994 19.1743 134.429 19.1743C133.96 19.1743 133.576 19.2885 133.275 19.5168C132.975 19.7451 132.759 20.1717 132.626 20.7965H131.635C131.635 20.388 131.659 20.0395 131.707 19.7511C131.767 19.4627 131.893 19.2103 132.086 18.994C132.458 18.5735 133.359 18.3632 134.789 18.3632C135.991 18.3632 136.904 18.6816 137.529 19.3185C138.166 19.9434 138.484 20.8867 138.484 22.1484V27.0151H136.952L136.322 26.204H136.231C136.123 26.3722 135.955 26.5405 135.727 26.7087C135.318 27.0332 134.765 27.1954 134.068 27.1954ZM134.609 26.2941C134.861 26.2941 135.078 26.2461 135.258 26.1499C135.438 26.0418 135.613 25.8976 135.781 25.7173C135.937 25.5491 136.057 25.3508 136.141 25.1225V22.8694H135.871C135.018 22.8694 134.399 23.0256 134.014 23.3381C133.63 23.6385 133.438 24.1131 133.438 24.762C133.438 25.2547 133.54 25.6332 133.744 25.8976C133.948 26.162 134.237 26.2941 134.609 26.2941ZM144.38 27.1954C143.107 27.1954 142.097 26.8048 141.352 26.0238C140.607 25.2307 140.235 24.1191 140.235 22.6892V22.1484C140.235 20.6824 140.361 19.5228 140.613 18.6696C140.877 17.8044 141.232 17.1795 141.677 16.795C142.133 16.3985 142.71 16.1221 143.407 15.9659L145.912 15.3891C146.465 15.2569 146.874 15.1307 147.138 15.0105C147.415 14.8784 147.577 14.7041 147.625 14.4878H148.166V15.9298C148.166 16.5547 147.805 16.9452 147.084 17.1014L144.128 17.7683C143.347 17.9606 142.71 18.3572 142.217 18.958C141.725 19.5468 141.454 20.3699 141.406 21.4274H141.496C141.797 20.6704 142.205 20.0936 142.722 19.697C143.239 19.2885 143.912 19.0842 144.741 19.0842C145.882 19.0842 146.796 19.4266 147.481 20.1116C148.178 20.7845 148.526 21.7939 148.526 23.1398C148.526 24.4977 148.16 25.5131 147.427 26.186C146.706 26.8589 145.69 27.1954 144.38 27.1954ZM144.38 26.3843C144.837 26.3843 145.234 26.1379 145.57 25.6452C145.918 25.1526 146.093 24.3174 146.093 23.1398C146.093 22.3587 146.003 21.7278 145.822 21.2472C145.654 20.7545 145.438 20.406 145.173 20.2017C144.921 19.9974 144.657 19.8953 144.38 19.8953C144.104 19.8953 143.834 19.9974 143.569 20.2017C143.317 20.406 143.101 20.7545 142.92 21.2472C142.752 21.7278 142.668 22.3587 142.668 23.1398C142.668 24.3174 142.836 25.1526 143.173 25.6452C143.521 26.1379 143.924 26.3843 144.38 26.3843ZM150.67 20.8867C150.67 20.2738 150.586 19.8232 150.417 19.5348C150.249 19.2344 149.913 19.0842 149.408 19.0842H149.228V18.5434H151.391C151.823 18.5434 152.154 18.6155 152.382 18.7597C152.61 18.9039 152.773 19.1443 152.869 19.4807C152.965 19.8052 153.013 20.2738 153.013 20.8867V21.9682H154.184C155.326 21.9682 156.227 22.1905 156.888 22.6351C157.549 23.0677 157.88 23.6865 157.88 24.4916C157.88 25.2968 157.549 25.9216 156.888 26.3662C156.227 26.7988 155.326 27.0151 154.184 27.0151H150.67V20.8867ZM160.403 27.0151C159.97 27.0151 159.64 26.949 159.412 26.8169C159.183 26.6727 159.021 26.4383 158.925 26.1139C158.829 25.7774 158.781 25.2968 158.781 24.6719V18.5434H161.124V24.6719C161.124 25.2847 161.208 25.7414 161.376 26.0418C161.545 26.3302 161.881 26.4744 162.386 26.4744H162.566V27.0151H160.403ZM153.824 26.2941C154.281 26.2941 154.665 26.1559 154.978 25.8796C155.29 25.5912 155.446 25.1285 155.446 24.4916C155.446 23.8548 155.29 23.3981 154.978 23.1218C154.665 22.8334 154.281 22.6892 153.824 22.6892C153.536 22.6892 153.265 22.7312 153.013 22.8153V26.168C153.265 26.2521 153.536 26.2941 153.824 26.2941ZM163.887 20.8867C163.887 20.2738 163.803 19.8232 163.635 19.5348C163.466 19.2344 163.13 19.0842 162.625 19.0842H162.535V18.5434H167.366C168.483 18.5434 169.367 18.7297 170.015 19.1022C170.676 19.4747 171.007 20.0094 171.007 20.7064C171.007 21.2351 170.809 21.6617 170.412 21.9862C170.015 22.2986 169.451 22.5029 168.718 22.599C169.523 22.7072 170.166 22.9415 170.646 23.302C171.127 23.6505 171.367 24.1071 171.367 24.6719C171.367 26.2341 170.033 27.0151 167.366 27.0151H163.887V20.8867ZM166.861 22.1484C167.342 22.1484 167.744 22.0222 168.069 21.7699C168.405 21.5055 168.573 21.151 168.573 20.7064C168.573 20.2378 168.417 19.8833 168.105 19.6429C167.804 19.3906 167.45 19.2644 167.041 19.2644C166.753 19.2644 166.483 19.3065 166.23 19.3906V22.1484H166.861ZM167.041 26.2941C167.606 26.2941 168.063 26.1559 168.411 25.8796C168.76 25.5912 168.934 25.1886 168.934 24.6719C168.934 24.1071 168.748 23.6805 168.375 23.3921C168.015 23.1037 167.51 22.9595 166.861 22.9595H166.23V26.168C166.483 26.2521 166.753 26.2941 167.041 26.2941ZM175.593 27.1954C174.619 27.1954 173.862 26.9791 173.321 26.5465C172.793 26.1019 172.528 25.5071 172.528 24.762C172.528 24.1612 172.667 23.6625 172.943 23.266C173.231 22.8694 173.73 22.569 174.439 22.3647C175.148 22.1604 176.133 22.0583 177.395 22.0583H177.665C177.665 21.0128 177.521 20.2738 177.233 19.8412C176.944 19.3966 176.518 19.1743 175.953 19.1743C175.484 19.1743 175.1 19.2885 174.8 19.5168C174.499 19.7451 174.283 20.1717 174.151 20.7965H173.159C173.159 20.388 173.183 20.0395 173.231 19.7511C173.291 19.4627 173.418 19.2103 173.61 18.994C173.982 18.5735 174.884 18.3632 176.314 18.3632C177.515 18.3632 178.429 18.6816 179.053 19.3185C179.69 19.9434 180.009 20.8867 180.009 22.1484V27.0151H178.477L177.846 26.204H177.756C177.647 26.3722 177.479 26.5405 177.251 26.7087C176.842 27.0332 176.29 27.1954 175.593 27.1954ZM176.133 26.2941C176.386 26.2941 176.602 26.2461 176.782 26.1499C176.963 26.0418 177.137 25.8976 177.305 25.7173C177.461 25.5491 177.581 25.3508 177.665 25.1225V22.8694H177.395C176.542 22.8694 175.923 23.0256 175.539 23.3381C175.154 23.6385 174.962 24.1131 174.962 24.762C174.962 25.2547 175.064 25.6332 175.268 25.8976C175.472 26.162 175.761 26.2941 176.133 26.2941ZM185.76 27.1954C184.931 27.1954 184.204 27.0031 183.579 26.6186C182.954 26.2341 182.468 25.7113 182.119 25.0504C181.783 24.3775 181.615 23.6204 181.615 22.7793C181.615 21.842 181.783 21.0429 182.119 20.382C182.468 19.721 182.942 19.2224 183.543 18.8859C184.144 18.5374 184.823 18.3632 185.58 18.3632C186.325 18.3632 186.998 18.5134 187.599 18.8138C188.2 19.1142 188.674 19.5408 189.023 20.0936C189.371 20.6343 189.546 21.2592 189.546 21.9682C189.546 22.1965 189.534 22.4548 189.51 22.7432L189.473 23.1037H184.048C184.048 24.2453 184.222 25.0805 184.571 25.6092C184.919 26.1259 185.406 26.3843 186.031 26.3843C186.608 26.3843 187.088 26.2581 187.473 26.0057C187.869 25.7414 188.248 25.3689 188.608 24.8882L189.167 25.3028C188.819 25.8435 188.38 26.2941 187.851 26.6546C187.335 27.0151 186.638 27.1954 185.76 27.1954ZM187.112 22.2926C187.112 21.163 186.98 20.3639 186.716 19.8953C186.451 19.4146 186.073 19.1743 185.58 19.1743C185.123 19.1743 184.751 19.4206 184.463 19.9133C184.186 20.394 184.048 21.1871 184.048 22.2926H187.112ZM202.087 27.4658C200.801 27.4658 199.87 27.1834 199.293 26.6186C198.716 26.0418 198.428 25.1526 198.428 23.9509V20.8146L195.832 27.0151H195.238L192.101 20.6343V26.9971H191.2V18.5434H193.399L196.067 23.9689L198.41 18.3632H200.771V23.9509C200.771 24.9723 200.867 25.7173 201.06 26.186C201.252 26.6546 201.594 26.931 202.087 27.0151V27.4658ZM207.098 27.1954C206.221 27.1954 205.452 27.0031 204.791 26.6186C204.142 26.222 203.644 25.6933 203.295 25.0324C202.947 24.3595 202.772 23.6084 202.772 22.7793C202.772 21.9501 202.947 21.2051 203.295 20.5442C203.644 19.8713 204.142 19.3425 204.791 18.958C205.452 18.5614 206.221 18.3632 207.098 18.3632C207.976 18.3632 208.739 18.5614 209.388 18.958C210.048 19.3425 210.553 19.8713 210.902 20.5442C211.25 21.2051 211.424 21.9501 211.424 22.7793C211.424 23.6084 211.25 24.3595 210.902 25.0324C210.553 25.6933 210.048 26.222 209.388 26.6186C208.739 27.0031 207.976 27.1954 207.098 27.1954ZM207.098 26.3843C207.711 26.3843 208.18 26.0538 208.504 25.3929C208.829 24.732 208.991 23.8608 208.991 22.7793C208.991 21.6978 208.829 20.8266 208.504 20.1657C208.18 19.5047 207.711 19.1743 207.098 19.1743C206.486 19.1743 206.017 19.5047 205.692 20.1657C205.368 20.8266 205.206 21.6978 205.206 22.7793C205.206 23.8608 205.368 24.732 205.692 25.3929C206.017 26.0538 206.486 26.3843 207.098 26.3843ZM216.882 27.1954C216.052 27.1954 215.325 27.0031 214.701 26.6186C214.076 26.2341 213.589 25.7113 213.24 25.0504C212.904 24.3775 212.736 23.6204 212.736 22.7793C212.736 21.842 212.904 21.0429 213.24 20.382C213.589 19.721 214.064 19.2224 214.664 18.8859C215.265 18.5374 215.944 18.3632 216.701 18.3632C217.446 18.3632 218.119 18.5134 218.72 18.8138C219.321 19.1142 219.796 19.5408 220.144 20.0936C220.493 20.6343 220.667 21.2592 220.667 21.9682C220.667 22.1965 220.655 22.4548 220.631 22.7432L220.595 23.1037H215.169C215.169 24.2453 215.343 25.0805 215.692 25.6092C216.04 26.1259 216.527 26.3843 217.152 26.3843C217.729 26.3843 218.209 26.2581 218.594 26.0057C218.99 25.7414 219.369 25.3689 219.729 24.8882L220.288 25.3028C219.94 25.8435 219.501 26.2941 218.972 26.6546C218.456 27.0151 217.759 27.1954 216.882 27.1954ZM218.233 22.2926C218.233 21.163 218.101 20.3639 217.837 19.8953C217.572 19.4146 217.194 19.1743 216.701 19.1743C216.245 19.1743 215.872 19.4206 215.584 19.9133C215.307 20.394 215.169 21.1871 215.169 22.2926H218.233ZM109.267 40.8867C109.267 40.2738 109.182 39.8232 109.014 39.5348C108.846 39.2344 108.509 39.0842 108.005 39.0842H107.915V38.5434H116.837V47.0151H114.494V39.3545H111.61V47.0151H109.267V40.8867ZM119.572 49.9893C120.232 49.9893 120.767 49.8631 121.176 49.6107C121.584 49.3584 121.915 48.9017 122.167 48.2408L122.546 47.2675L119.301 40.1657C118.905 39.3005 118.346 38.8198 117.625 38.7237V38.3632H119.211C119.74 38.3632 120.208 38.4954 120.617 38.7597C121.026 39.0121 121.338 39.3606 121.554 39.8052L123.627 44.3474L125.826 38.5434H126.782L123.14 48.1868C122.804 49.1241 122.413 49.7609 121.969 50.0974C121.524 50.4459 120.965 50.6201 120.293 50.6201H119.572V49.9893ZM130.275 39.3545H129.734C129.169 39.3545 128.742 39.5047 128.454 39.8052C128.166 40.1056 128.021 40.5862 128.021 41.2472H127.481V39.9854C127.481 39.0241 127.931 38.5434 128.833 38.5434H135.34V39.3545H132.618V47.0151H130.275V39.3545ZM140.064 47.1954C139.235 47.1954 138.508 47.0031 137.883 46.6186C137.258 46.2341 136.772 45.7113 136.423 45.0504C136.087 44.3775 135.919 43.6204 135.919 42.7793C135.919 41.842 136.087 41.0429 136.423 40.382C136.772 39.721 137.246 39.2224 137.847 38.8859C138.448 38.5374 139.127 38.3632 139.884 38.3632C140.629 38.3632 141.302 38.5134 141.903 38.8138C142.504 39.1142 142.978 39.5408 143.327 40.0936C143.675 40.6343 143.85 41.2592 143.85 41.9682C143.85 42.1965 143.838 42.4548 143.814 42.7432L143.777 43.1037H138.352C138.352 44.2453 138.526 45.0805 138.875 45.6092C139.223 46.1259 139.71 46.3843 140.335 46.3843C140.912 46.3843 141.392 46.2581 141.777 46.0057C142.173 45.7414 142.552 45.3689 142.912 44.8882L143.471 45.3028C143.123 45.8435 142.684 46.2941 142.155 46.6546C141.639 47.0151 140.942 47.1954 140.064 47.1954ZM141.416 42.2926C141.416 41.163 141.284 40.3639 141.02 39.8953C140.755 39.4146 140.377 39.1743 139.884 39.1743C139.427 39.1743 139.055 39.4206 138.767 39.9133C138.49 40.394 138.352 41.1871 138.352 42.2926H141.416ZM145.847 40.8867C145.847 40.2738 145.762 39.8232 145.594 39.5348C145.426 39.2344 145.09 39.0842 144.585 39.0842H144.405V38.5434H146.568C147 38.5434 147.331 38.6155 147.559 38.7597C147.787 38.9039 147.949 39.1443 148.046 39.4807C148.142 39.8052 148.19 40.2738 148.19 40.8867V46.204H150.263V38.5434H152.606V46.204H154.679V38.5434H157.022V47.0151H145.847V40.8867ZM162.912 47.1954C162.083 47.1954 161.356 47.0031 160.731 46.6186C160.106 46.2341 159.62 45.7113 159.271 45.0504C158.935 44.3775 158.767 43.6204 158.767 42.7793C158.767 41.842 158.935 41.0429 159.271 40.382C159.62 39.721 160.094 39.2224 160.695 38.8859C161.296 38.5374 161.975 38.3632 162.732 38.3632C163.477 38.3632 164.15 38.5134 164.751 38.8138C165.352 39.1142 165.826 39.5408 166.175 40.0936C166.523 40.6343 166.698 41.2592 166.698 41.9682C166.698 42.1965 166.686 42.4548 166.662 42.7432L166.625 43.1037H161.2C161.2 44.2453 161.374 45.0805 161.723 45.6092C162.071 46.1259 162.558 46.3843 163.183 46.3843C163.76 46.3843 164.24 46.2581 164.625 46.0057C165.021 45.7414 165.4 45.3689 165.76 44.8882L166.319 45.3028C165.971 45.8435 165.532 46.2941 165.003 46.6546C164.487 47.0151 163.79 47.1954 162.912 47.1954ZM164.264 42.2926C164.264 41.163 164.132 40.3639 163.868 39.8953C163.603 39.4146 163.225 39.1743 162.732 39.1743C162.275 39.1743 161.903 39.4206 161.615 39.9133C161.338 40.394 161.2 41.1871 161.2 42.2926H164.264ZM172.245 47.1954C171.32 47.1954 170.533 46.9971 169.884 46.6006C169.235 46.204 168.743 45.6753 168.406 45.0144C168.082 44.3414 167.919 43.5964 167.919 42.7793C167.919 41.9621 168.082 41.2231 168.406 40.5622C168.743 39.8893 169.235 39.3545 169.884 38.958C170.533 38.5614 171.32 38.3632 172.245 38.3632C173.687 38.3632 174.619 38.5735 175.039 38.994C175.244 39.1983 175.37 39.4687 175.418 39.8052C175.466 40.1416 175.49 40.7124 175.49 41.5175H174.949C174.901 40.7605 174.667 40.1837 174.246 39.7871C173.826 39.3786 173.249 39.1743 172.516 39.1743C171.855 39.1743 171.326 39.4807 170.93 40.0936C170.545 40.6944 170.353 41.5896 170.353 42.7793C170.353 45.1826 171.104 46.3843 172.606 46.3843C173.183 46.3843 173.663 46.2581 174.048 46.0057C174.445 45.7414 174.823 45.3689 175.184 44.8882L175.742 45.3028C175.394 45.8435 174.955 46.2941 174.426 46.6546C173.898 47.0151 173.171 47.1954 172.245 47.1954ZM179.403 39.3545H178.862C178.298 39.3545 177.871 39.5047 177.583 39.8052C177.294 40.1056 177.15 40.5862 177.15 41.2472H176.609V39.9854C176.609 39.0241 177.06 38.5434 177.961 38.5434H184.468V39.3545H181.746V47.0151H179.403V39.3545ZM185.96 40.8867C185.96 40.2738 185.876 39.8232 185.708 39.5348C185.54 39.2344 185.203 39.0842 184.699 39.0842H184.609V38.5434H189.439C190.557 38.5434 191.44 38.7297 192.089 39.1022C192.75 39.4747 193.08 40.0094 193.08 40.7064C193.08 41.2351 192.882 41.6617 192.486 41.9862C192.089 42.2986 191.524 42.5029 190.791 42.599C191.596 42.7072 192.239 42.9415 192.72 43.302C193.2 43.6505 193.441 44.1071 193.441 44.6719C193.441 46.2341 192.107 47.0151 189.439 47.0151H185.96V40.8867ZM188.935 42.1484C189.415 42.1484 189.818 42.0222 190.142 41.7699C190.479 41.5055 190.647 41.151 190.647 40.7064C190.647 40.2378 190.491 39.8833 190.178 39.6429C189.878 39.3906 189.523 39.2644 189.115 39.2644C188.826 39.2644 188.556 39.3065 188.304 39.3906V42.1484H188.935ZM189.115 46.2941C189.68 46.2941 190.136 46.1559 190.485 45.8796C190.833 45.5912 191.007 45.1886 191.007 44.6719C191.007 44.1071 190.821 43.6805 190.449 43.3921C190.088 43.1037 189.583 42.9595 188.935 42.9595H188.304V46.168C188.556 46.2521 188.826 46.2941 189.115 46.2941ZM195.503 40.8867C195.503 40.2738 195.419 39.8232 195.251 39.5348C195.083 39.2344 194.746 39.0842 194.241 39.0842H194.061V38.5434H196.224C196.657 38.5434 196.987 38.6155 197.215 38.7597C197.444 38.9039 197.606 39.1443 197.702 39.4807C197.798 39.8052 197.846 40.2738 197.846 40.8867V44.762L201.091 38.5434H203.254V47.0151H200.911V40.7965L197.666 47.0151H195.503V40.8867ZM209.154 47.1954C208.325 47.1954 207.598 47.0031 206.973 46.6186C206.348 46.2341 205.862 45.7113 205.513 45.0504C205.177 44.3775 205.008 43.6204 205.008 42.7793C205.008 41.842 205.177 41.0429 205.513 40.382C205.862 39.721 206.336 39.2224 206.937 38.8859C207.538 38.5374 208.217 38.3632 208.974 38.3632C209.719 38.3632 210.392 38.5134 210.993 38.8138C211.593 39.1142 212.068 39.5408 212.417 40.0936C212.765 40.6343 212.939 41.2592 212.939 41.9682C212.939 42.1965 212.927 42.4548 212.903 42.7432L212.867 43.1037H207.442C207.442 44.2453 207.616 45.0805 207.964 45.6092C208.313 46.1259 208.8 46.3843 209.424 46.3843C210.001 46.3843 210.482 46.2581 210.866 46.0057C211.263 45.7414 211.641 45.3689 212.002 44.8882L212.561 45.3028C212.212 45.8435 211.774 46.2941 211.245 46.6546C210.728 47.0151 210.031 47.1954 209.154 47.1954ZM210.506 42.2926C210.506 41.163 210.374 40.3639 210.109 39.8953C209.845 39.4146 209.466 39.1743 208.974 39.1743C208.517 39.1743 208.145 39.4206 207.856 39.9133C207.58 40.394 207.442 41.1871 207.442 42.2926H210.506Z" fill="#F0F0F0"/>
<path d="M66.0914 30.3638C66.0914 45.5423 54.8957 58.155 40.3287 60.3789C40.4516 59.7052 40.4861 59.0076 40.4033 58.3007C40.4033 58.3007 40.3163 57.5568 40.2025 56.5833C45.3743 55.7022 50.0437 53.329 53.7447 49.9161C53.5226 49.7314 53.3013 49.4917 53.0832 49.1736C52.1002 47.7393 53.3856 46.3162 53.3856 45.062C53.3856 43.8317 50.9053 43.9329 50.8145 43.1181C50.5011 40.2963 52.5461 40.2578 53.6364 39.1675C54.7267 38.0772 52.5588 35.5985 51.1584 35.7584C49.7486 35.909 45.7802 35.1073 46.1428 32.0711C46.5846 28.3731 41.4314 28.6994 40.6935 26.9733C39.6178 24.4574 41.406 21.3714 43.7385 20.6704C47.0422 19.6774 50.2967 16.9822 50.0425 13.982C49.7545 10.584 48.2165 7.51946 45.6833 5.69903C43.0472 4.63109 40.2047 3.97072 37.2308 3.80409C34.5767 3.90906 32.2432 4.49891 32.3497 5.71404C32.6107 8.69183 41.0785 9.46527 39.6575 12.2489C38.9167 13.7 33.3568 15.7481 34.3952 17.9077C35.0706 19.3121 36.7327 18.1085 36.1121 20.8047C35.8266 22.0453 34.7388 24.3763 33.0659 24.5268C31.3552 24.6865 29.9307 20.1545 25.2742 20.0059C23.0729 19.9355 19.9717 23.4405 22.605 25.9271C24.1996 27.433 27.192 24.1173 28.0751 26.7074C28.6975 28.5325 27.9913 32.3667 30.896 33.9691C31.9549 34.5532 33.5781 35.0624 35.1835 35.8782C32.8007 36.3648 29.8728 37.2728 26.4154 38.6046L23.5024 37.836C24.7219 36.8209 26.7032 36.1063 26.2047 33.8881C25.4724 30.6292 19.8139 31.8583 15.9129 27.9574C14.7161 26.7608 12.1635 22.7874 12.174 18.0137C10.2295 21.7073 9.12277 25.9078 9.12277 30.3639C9.12277 31.7355 9.22741 33.0832 9.4286 34.3996C9.38271 34.3988 9.33735 34.3908 9.29156 34.3908C8.06304 34.3908 6.85817 34.6489 5.74152 35.1369C5.49487 33.5813 5.36322 31.988 5.36322 30.364C5.36322 13.6214 18.9846 -0.000488279 35.7272 -0.000488279C52.47 -0.000704264 66.0914 13.6211 66.0914 30.3638ZM43.3146 39.214L35.8988 42.6228L36.0138 41.0069L40.8179 38.8382C40.1327 38.7891 39.4228 38.7704 38.7139 38.7704C36.0596 38.7704 31.575 40.1141 26.6149 42.0829L10.7068 37.8868C9.22018 37.4946 7.63744 37.7362 6.33537 38.5542L5.55318 39.0456C4.78957 39.5253 4.78147 40.6355 5.53796 41.1264L15.1006 47.3304C12.8162 48.4986 10.6489 49.6851 8.73832 50.8183L3.83135 48.2204C3.02983 47.7961 2.0822 47.7458 1.2404 48.083L0.77592 48.2691C0.0832556 48.5464 -0.20692 49.3701 0.159174 50.0204L2.86233 54.823L2.86352 54.8226C1.84364 55.7 1.26243 56.4277 1.26243 56.9312C1.26243 58.4384 3.11709 58.815 4.75188 58.815C7.66768 58.815 46.1742 49.9984 46.1742 42.0109C46.174 40.429 45.0922 39.6378 43.3146 39.214ZM27.0792 54.8091L35.5526 51.8242C35.9259 51.6926 36.3247 51.9414 36.3707 52.3345L37.1136 58.6861C37.2992 60.2733 36.4455 61.8006 34.9965 62.4743L34.2018 62.8436C33.7054 63.0743 33.1167 62.9506 32.755 62.5399L26.821 55.799C26.5321 55.4707 26.6667 54.9544 27.0792 54.8091Z" fill="white"/>
</svg>
